<?xml version="1.0"?>
<svg xmlns="http://www.w3.org/2000/svg" xmlns:xlink="http://www.w3.org/1999/xlink" version="1.1" width="160px" height="160px" viewBox="0 0 160 160"><defs><rect id="block" width="2.8571428571" height="2.8571428571" fill="#000000" fill-opacity="1"/></defs><rect x="0" y="0" width="160" height="160" fill="#ffffff" fill-opacity="1"/><use x="10.0000000000" y="10.0000000000" xlink:href="#block"/><use x="12.8571428571" y="10.0000000000" xlink:href="#block"/><use x="15.7142857143" y="10.0000000000" xlink:href="#block"/><use x="18.5714285714" y="10.0000000000" xlink:href="#block"/><use x="21.4285714286" y="10.0000000000" xlink:href="#block"/><use x="24.2857142857" y="10.0000000000" xlink:href="#block"/><use x="27.1428571429" y="10.0000000000" xlink:href="#block"/><use x="32.8571428571" y="10.0000000000" xlink:href="#block"/><use x="35.7142857143" y="10.0000000000" xlink:href="#block"/><use x="38.5714285714" y="10.0000000000" xlink:href="#block"/><use x="44.2857142857" y="10.0000000000" xlink:href="#block"/><use x="55.7142857143" y="10.0000000000" xlink:href="#block"/><use x="58.5714285714" y="10.0000000000" xlink:href="#block"/><use x="70.0000000000" y="10.0000000000" xlink:href="#block"/><use x="75.7142857143" y="10.0000000000" xlink:href="#block"/><use x="78.5714285714" y="10.0000000000" xlink:href="#block"/><use x="87.1428571429" y="10.0000000000" xlink:href="#block"/><use x="90.0000000000" y="10.0000000000" xlink:href="#block"/><use x="98.5714285714" y="10.0000000000" xlink:href="#block"/><use x="107.1428571429" y="10.0000000000" xlink:href="#block"/><use x="115.7142857143" y="10.0000000000" xlink:href="#block"/><use x="124.2857142857" y="10.0000000000" xlink:href="#block"/><use x="130.0000000000" y="10.0000000000" xlink:href="#block"/><use x="132.8571428571" y="10.0000000000" xlink:href="#block"/><use x="135.7142857143" y="10.0000000000" xlink:href="#block"/><use x="138.5714285714" y="10.0000000000" xlink:href="#block"/><use x="141.4285714286" y="10.0000000000" xlink:href="#block"/><use x="144.2857142857" y="10.0000000000" xlink:href="#block"/><use x="147.1428571429" y="10.0000000000" xlink:href="#block"/><use x="10.0000000000" y="12.8571428571" xlink:href="#block"/><use x="27.1428571429" y="12.8571428571" xlink:href="#block"/><use x="32.8571428571" y="12.8571428571" xlink:href="#block"/><use x="38.5714285714" y="12.8571428571" xlink:href="#block"/><use x="52.8571428571" y="12.8571428571" xlink:href="#block"/><use x="61.4285714286" y="12.8571428571" xlink:href="#block"/><use x="64.2857142857" y="12.8571428571" xlink:href="#block"/><use x="67.1428571429" y="12.8571428571" xlink:href="#block"/><use x="70.0000000000" y="12.8571428571" xlink:href="#block"/><use x="72.8571428571" y="12.8571428571" xlink:href="#block"/><use x="75.7142857143" y="12.8571428571" xlink:href="#block"/><use x="78.5714285714" y="12.8571428571" xlink:href="#block"/><use x="81.4285714286" y="12.8571428571" xlink:href="#block"/><use x="90.0000000000" y="12.8571428571" xlink:href="#block"/><use x="92.8571428571" y="12.8571428571" xlink:href="#block"/><use x="95.7142857143" y="12.8571428571" xlink:href="#block"/><use x="104.2857142857" y="12.8571428571" xlink:href="#block"/><use x="110.0000000000" y="12.8571428571" xlink:href="#block"/><use x="112.8571428571" y="12.8571428571" xlink:href="#block"/><use x="118.5714285714" y="12.8571428571" xlink:href="#block"/><use x="121.4285714286" y="12.8571428571" xlink:href="#block"/><use x="124.2857142857" y="12.8571428571" xlink:href="#block"/><use x="130.0000000000" y="12.8571428571" xlink:href="#block"/><use x="147.1428571429" y="12.8571428571" xlink:href="#block"/><use x="10.0000000000" y="15.7142857143" xlink:href="#block"/><use x="15.7142857143" y="15.7142857143" xlink:href="#block"/><use x="18.5714285714" y="15.7142857143" xlink:href="#block"/><use x="21.4285714286" y="15.7142857143" xlink:href="#block"/><use x="27.1428571429" y="15.7142857143" xlink:href="#block"/><use x="32.8571428571" y="15.7142857143" xlink:href="#block"/><use x="41.4285714286" y="15.7142857143" xlink:href="#block"/><use x="50.0000000000" y="15.7142857143" xlink:href="#block"/><use x="55.7142857143" y="15.7142857143" xlink:href="#block"/><use x="61.4285714286" y="15.7142857143" xlink:href="#block"/><use x="64.2857142857" y="15.7142857143" xlink:href="#block"/><use x="67.1428571429" y="15.7142857143" xlink:href="#block"/><use x="70.0000000000" y="15.7142857143" xlink:href="#block"/><use x="72.8571428571" y="15.7142857143" xlink:href="#block"/><use x="75.7142857143" y="15.7142857143" xlink:href="#block"/><use x="78.5714285714" y="15.7142857143" xlink:href="#block"/><use x="87.1428571429" y="15.7142857143" xlink:href="#block"/><use x="95.7142857143" y="15.7142857143" xlink:href="#block"/><use x="98.5714285714" y="15.7142857143" xlink:href="#block"/><use x="101.4285714286" y="15.7142857143" xlink:href="#block"/><use x="104.2857142857" y="15.7142857143" xlink:href="#block"/><use x="110.0000000000" y="15.7142857143" xlink:href="#block"/><use x="115.7142857143" y="15.7142857143" xlink:href="#block"/><use x="121.4285714286" y="15.7142857143" xlink:href="#block"/><use x="124.2857142857" y="15.7142857143" xlink:href="#block"/><use x="130.0000000000" y="15.7142857143" xlink:href="#block"/><use x="135.7142857143" y="15.7142857143" xlink:href="#block"/><use x="138.5714285714" y="15.7142857143" xlink:href="#block"/><use x="141.4285714286" y="15.7142857143" xlink:href="#block"/><use x="147.1428571429" y="15.7142857143" xlink:href="#block"/><use x="10.0000000000" y="18.5714285714" xlink:href="#block"/><use x="15.7142857143" y="18.5714285714" xlink:href="#block"/><use x="18.5714285714" y="18.5714285714" xlink:href="#block"/><use x="21.4285714286" y="18.5714285714" xlink:href="#block"/><use x="27.1428571429" y="18.5714285714" xlink:href="#block"/><use x="38.5714285714" y="18.5714285714" xlink:href="#block"/><use x="41.4285714286" y="18.5714285714" xlink:href="#block"/><use x="52.8571428571" y="18.5714285714" xlink:href="#block"/><use x="58.5714285714" y="18.5714285714" xlink:href="#block"/><use x="61.4285714286" y="18.5714285714" xlink:href="#block"/><use x="64.2857142857" y="18.5714285714" xlink:href="#block"/><use x="75.7142857143" y="18.5714285714" xlink:href="#block"/><use x="87.1428571429" y="18.5714285714" xlink:href="#block"/><use x="92.8571428571" y="18.5714285714" xlink:href="#block"/><use x="107.1428571429" y="18.5714285714" xlink:href="#block"/><use x="110.0000000000" y="18.5714285714" xlink:href="#block"/><use x="112.8571428571" y="18.5714285714" xlink:href="#block"/><use x="115.7142857143" y="18.5714285714" xlink:href="#block"/><use x="121.4285714286" y="18.5714285714" xlink:href="#block"/><use x="130.0000000000" y="18.5714285714" xlink:href="#block"/><use x="135.7142857143" y="18.5714285714" xlink:href="#block"/><use x="138.5714285714" y="18.5714285714" xlink:href="#block"/><use x="141.4285714286" y="18.5714285714" xlink:href="#block"/><use x="147.1428571429" y="18.5714285714" xlink:href="#block"/><use x="10.0000000000" y="21.4285714286" xlink:href="#block"/><use x="15.7142857143" y="21.4285714286" xlink:href="#block"/><use x="18.5714285714" y="21.4285714286" xlink:href="#block"/><use x="21.4285714286" y="21.4285714286" xlink:href="#block"/><use x="27.1428571429" y="21.4285714286" xlink:href="#block"/><use x="38.5714285714" y="21.4285714286" xlink:href="#block"/><use x="41.4285714286" y="21.4285714286" xlink:href="#block"/><use x="50.0000000000" y="21.4285714286" xlink:href="#block"/><use x="52.8571428571" y="21.4285714286" xlink:href="#block"/><use x="55.7142857143" y="21.4285714286" xlink:href="#block"/><use x="61.4285714286" y="21.4285714286" xlink:href="#block"/><use x="70.0000000000" y="21.4285714286" xlink:href="#block"/><use x="72.8571428571" y="21.4285714286" xlink:href="#block"/><use x="75.7142857143" y="21.4285714286" xlink:href="#block"/><use x="78.5714285714" y="21.4285714286" xlink:href="#block"/><use x="81.4285714286" y="21.4285714286" xlink:href="#block"/><use x="84.2857142857" y="21.4285714286" xlink:href="#block"/><use x="95.7142857143" y="21.4285714286" xlink:href="#block"/><use x="98.5714285714" y="21.4285714286" xlink:href="#block"/><use x="101.4285714286" y="21.4285714286" xlink:href="#block"/><use x="104.2857142857" y="21.4285714286" xlink:href="#block"/><use x="107.1428571429" y="21.4285714286" xlink:href="#block"/><use x="110.0000000000" y="21.4285714286" xlink:href="#block"/><use x="130.0000000000" y="21.4285714286" xlink:href="#block"/><use x="135.7142857143" y="21.4285714286" xlink:href="#block"/><use x="138.5714285714" y="21.4285714286" xlink:href="#block"/><use x="141.4285714286" y="21.4285714286" xlink:href="#block"/><use x="147.1428571429" y="21.4285714286" xlink:href="#block"/><use x="10.0000000000" y="24.2857142857" xlink:href="#block"/><use x="27.1428571429" y="24.2857142857" xlink:href="#block"/><use x="32.8571428571" y="24.2857142857" xlink:href="#block"/><use x="44.2857142857" y="24.2857142857" xlink:href="#block"/><use x="52.8571428571" y="24.2857142857" xlink:href="#block"/><use x="58.5714285714" y="24.2857142857" xlink:href="#block"/><use x="61.4285714286" y="24.2857142857" xlink:href="#block"/><use x="64.2857142857" y="24.2857142857" xlink:href="#block"/><use x="72.8571428571" y="24.2857142857" xlink:href="#block"/><use x="84.2857142857" y="24.2857142857" xlink:href="#block"/><use x="90.0000000000" y="24.2857142857" xlink:href="#block"/><use x="95.7142857143" y="24.2857142857" xlink:href="#block"/><use x="98.5714285714" y="24.2857142857" xlink:href="#block"/><use x="101.4285714286" y="24.2857142857" xlink:href="#block"/><use x="110.0000000000" y="24.2857142857" xlink:href="#block"/><use x="112.8571428571" y="24.2857142857" xlink:href="#block"/><use x="115.7142857143" y="24.2857142857" xlink:href="#block"/><use x="118.5714285714" y="24.2857142857" xlink:href="#block"/><use x="130.0000000000" y="24.2857142857" xlink:href="#block"/><use x="147.1428571429" y="24.2857142857" xlink:href="#block"/><use x="10.0000000000" y="27.1428571429" xlink:href="#block"/><use x="12.8571428571" y="27.1428571429" xlink:href="#block"/><use x="15.7142857143" y="27.1428571429" xlink:href="#block"/><use x="18.5714285714" y="27.1428571429" xlink:href="#block"/><use x="21.4285714286" y="27.1428571429" xlink:href="#block"/><use x="24.2857142857" y="27.1428571429" xlink:href="#block"/><use x="27.1428571429" y="27.1428571429" xlink:href="#block"/><use x="32.8571428571" y="27.1428571429" xlink:href="#block"/><use x="38.5714285714" y="27.1428571429" xlink:href="#block"/><use x="44.2857142857" y="27.1428571429" xlink:href="#block"/><use x="50.0000000000" y="27.1428571429" xlink:href="#block"/><use x="55.7142857143" y="27.1428571429" xlink:href="#block"/><use x="61.4285714286" y="27.1428571429" xlink:href="#block"/><use x="67.1428571429" y="27.1428571429" xlink:href="#block"/><use x="72.8571428571" y="27.1428571429" xlink:href="#block"/><use x="78.5714285714" y="27.1428571429" xlink:href="#block"/><use x="84.2857142857" y="27.1428571429" xlink:href="#block"/><use x="90.0000000000" y="27.1428571429" xlink:href="#block"/><use x="95.7142857143" y="27.1428571429" xlink:href="#block"/><use x="101.4285714286" y="27.1428571429" xlink:href="#block"/><use x="107.1428571429" y="27.1428571429" xlink:href="#block"/><use x="112.8571428571" y="27.1428571429" xlink:href="#block"/><use x="118.5714285714" y="27.1428571429" xlink:href="#block"/><use x="124.2857142857" y="27.1428571429" xlink:href="#block"/><use x="130.0000000000" y="27.1428571429" xlink:href="#block"/><use x="132.8571428571" y="27.1428571429" xlink:href="#block"/><use x="135.7142857143" y="27.1428571429" xlink:href="#block"/><use x="138.5714285714" y="27.1428571429" xlink:href="#block"/><use x="141.4285714286" y="27.1428571429" xlink:href="#block"/><use x="144.2857142857" y="27.1428571429" xlink:href="#block"/><use x="147.1428571429" y="27.1428571429" xlink:href="#block"/><use x="32.8571428571" y="30.0000000000" xlink:href="#block"/><use x="38.5714285714" y="30.0000000000" xlink:href="#block"/><use x="47.1428571429" y="30.0000000000" xlink:href="#block"/><use x="61.4285714286" y="30.0000000000" xlink:href="#block"/><use x="64.2857142857" y="30.0000000000" xlink:href="#block"/><use x="67.1428571429" y="30.0000000000" xlink:href="#block"/><use x="70.0000000000" y="30.0000000000" xlink:href="#block"/><use x="72.8571428571" y="30.0000000000" xlink:href="#block"/><use x="84.2857142857" y="30.0000000000" xlink:href="#block"/><use x="90.0000000000" y="30.0000000000" xlink:href="#block"/><use x="92.8571428571" y="30.0000000000" xlink:href="#block"/><use x="98.5714285714" y="30.0000000000" xlink:href="#block"/><use x="104.2857142857" y="30.0000000000" xlink:href="#block"/><use x="112.8571428571" y="30.0000000000" xlink:href="#block"/><use x="115.7142857143" y="30.0000000000" xlink:href="#block"/><use x="121.4285714286" y="30.0000000000" xlink:href="#block"/><use x="15.7142857143" y="32.8571428571" xlink:href="#block"/><use x="18.5714285714" y="32.8571428571" xlink:href="#block"/><use x="21.4285714286" y="32.8571428571" xlink:href="#block"/><use x="27.1428571429" y="32.8571428571" xlink:href="#block"/><use x="32.8571428571" y="32.8571428571" xlink:href="#block"/><use x="35.7142857143" y="32.8571428571" xlink:href="#block"/><use x="38.5714285714" y="32.8571428571" xlink:href="#block"/><use x="41.4285714286" y="32.8571428571" xlink:href="#block"/><use x="44.2857142857" y="32.8571428571" xlink:href="#block"/><use x="47.1428571429" y="32.8571428571" xlink:href="#block"/><use x="50.0000000000" y="32.8571428571" xlink:href="#block"/><use x="61.4285714286" y="32.8571428571" xlink:href="#block"/><use x="70.0000000000" y="32.8571428571" xlink:href="#block"/><use x="72.8571428571" y="32.8571428571" xlink:href="#block"/><use x="75.7142857143" y="32.8571428571" xlink:href="#block"/><use x="78.5714285714" y="32.8571428571" xlink:href="#block"/><use x="81.4285714286" y="32.8571428571" xlink:href="#block"/><use x="84.2857142857" y="32.8571428571" xlink:href="#block"/><use x="87.1428571429" y="32.8571428571" xlink:href="#block"/><use x="92.8571428571" y="32.8571428571" xlink:href="#block"/><use x="95.7142857143" y="32.8571428571" xlink:href="#block"/><use x="101.4285714286" y="32.8571428571" xlink:href="#block"/><use x="107.1428571429" y="32.8571428571" xlink:href="#block"/><use x="110.0000000000" y="32.8571428571" xlink:href="#block"/><use x="118.5714285714" y="32.8571428571" xlink:href="#block"/><use x="127.1428571429" y="32.8571428571" xlink:href="#block"/><use x="130.0000000000" y="32.8571428571" xlink:href="#block"/><use x="132.8571428571" y="32.8571428571" xlink:href="#block"/><use x="141.4285714286" y="32.8571428571" xlink:href="#block"/><use x="144.2857142857" y="32.8571428571" xlink:href="#block"/><use x="147.1428571429" y="32.8571428571" xlink:href="#block"/><use x="10.0000000000" y="35.7142857143" xlink:href="#block"/><use x="18.5714285714" y="35.7142857143" xlink:href="#block"/><use x="24.2857142857" y="35.7142857143" xlink:href="#block"/><use x="30.0000000000" y="35.7142857143" xlink:href="#block"/><use x="32.8571428571" y="35.7142857143" xlink:href="#block"/><use x="35.7142857143" y="35.7142857143" xlink:href="#block"/><use x="38.5714285714" y="35.7142857143" xlink:href="#block"/><use x="41.4285714286" y="35.7142857143" xlink:href="#block"/><use x="47.1428571429" y="35.7142857143" xlink:href="#block"/><use x="50.0000000000" y="35.7142857143" xlink:href="#block"/><use x="61.4285714286" y="35.7142857143" xlink:href="#block"/><use x="64.2857142857" y="35.7142857143" xlink:href="#block"/><use x="70.0000000000" y="35.7142857143" xlink:href="#block"/><use x="90.0000000000" y="35.7142857143" xlink:href="#block"/><use x="92.8571428571" y="35.7142857143" xlink:href="#block"/><use x="95.7142857143" y="35.7142857143" xlink:href="#block"/><use x="101.4285714286" y="35.7142857143" xlink:href="#block"/><use x="107.1428571429" y="35.7142857143" xlink:href="#block"/><use x="127.1428571429" y="35.7142857143" xlink:href="#block"/><use x="135.7142857143" y="35.7142857143" xlink:href="#block"/><use x="144.2857142857" y="35.7142857143" xlink:href="#block"/><use x="10.0000000000" y="38.5714285714" xlink:href="#block"/><use x="12.8571428571" y="38.5714285714" xlink:href="#block"/><use x="15.7142857143" y="38.5714285714" xlink:href="#block"/><use x="27.1428571429" y="38.5714285714" xlink:href="#block"/><use x="30.0000000000" y="38.5714285714" xlink:href="#block"/><use x="32.8571428571" y="38.5714285714" xlink:href="#block"/><use x="35.7142857143" y="38.5714285714" xlink:href="#block"/><use x="58.5714285714" y="38.5714285714" xlink:href="#block"/><use x="78.5714285714" y="38.5714285714" xlink:href="#block"/><use x="87.1428571429" y="38.5714285714" xlink:href="#block"/><use x="90.0000000000" y="38.5714285714" xlink:href="#block"/><use x="92.8571428571" y="38.5714285714" xlink:href="#block"/><use x="95.7142857143" y="38.5714285714" xlink:href="#block"/><use x="98.5714285714" y="38.5714285714" xlink:href="#block"/><use x="107.1428571429" y="38.5714285714" xlink:href="#block"/><use x="110.0000000000" y="38.5714285714" xlink:href="#block"/><use x="115.7142857143" y="38.5714285714" xlink:href="#block"/><use x="118.5714285714" y="38.5714285714" xlink:href="#block"/><use x="124.2857142857" y="38.5714285714" xlink:href="#block"/><use x="127.1428571429" y="38.5714285714" xlink:href="#block"/><use x="132.8571428571" y="38.5714285714" xlink:href="#block"/><use x="138.5714285714" y="38.5714285714" xlink:href="#block"/><use x="141.4285714286" y="38.5714285714" xlink:href="#block"/><use x="144.2857142857" y="38.5714285714" xlink:href="#block"/><use x="10.0000000000" y="41.4285714286" xlink:href="#block"/><use x="12.8571428571" y="41.4285714286" xlink:href="#block"/><use x="21.4285714286" y="41.4285714286" xlink:href="#block"/><use x="24.2857142857" y="41.4285714286" xlink:href="#block"/><use x="30.0000000000" y="41.4285714286" xlink:href="#block"/><use x="44.2857142857" y="41.4285714286" xlink:href="#block"/><use x="52.8571428571" y="41.4285714286" xlink:href="#block"/><use x="55.7142857143" y="41.4285714286" xlink:href="#block"/><use x="58.5714285714" y="41.4285714286" xlink:href="#block"/><use x="67.1428571429" y="41.4285714286" xlink:href="#block"/><use x="70.0000000000" y="41.4285714286" xlink:href="#block"/><use x="72.8571428571" y="41.4285714286" xlink:href="#block"/><use x="75.7142857143" y="41.4285714286" xlink:href="#block"/><use x="90.0000000000" y="41.4285714286" xlink:href="#block"/><use x="95.7142857143" y="41.4285714286" xlink:href="#block"/><use x="110.0000000000" y="41.4285714286" xlink:href="#block"/><use x="112.8571428571" y="41.4285714286" xlink:href="#block"/><use x="115.7142857143" y="41.4285714286" xlink:href="#block"/><use x="127.1428571429" y="41.4285714286" xlink:href="#block"/><use x="130.0000000000" y="41.4285714286" xlink:href="#block"/><use x="138.5714285714" y="41.4285714286" xlink:href="#block"/><use x="141.4285714286" y="41.4285714286" xlink:href="#block"/><use x="12.8571428571" y="44.2857142857" xlink:href="#block"/><use x="27.1428571429" y="44.2857142857" xlink:href="#block"/><use x="32.8571428571" y="44.2857142857" xlink:href="#block"/><use x="41.4285714286" y="44.2857142857" xlink:href="#block"/><use x="44.2857142857" y="44.2857142857" xlink:href="#block"/><use x="47.1428571429" y="44.2857142857" xlink:href="#block"/><use x="50.0000000000" y="44.2857142857" xlink:href="#block"/><use x="52.8571428571" y="44.2857142857" xlink:href="#block"/><use x="55.7142857143" y="44.2857142857" xlink:href="#block"/><use x="64.2857142857" y="44.2857142857" xlink:href="#block"/><use x="70.0000000000" y="44.2857142857" xlink:href="#block"/><use x="78.5714285714" y="44.2857142857" xlink:href="#block"/><use x="81.4285714286" y="44.2857142857" xlink:href="#block"/><use x="84.2857142857" y="44.2857142857" xlink:href="#block"/><use x="90.0000000000" y="44.2857142857" xlink:href="#block"/><use x="92.8571428571" y="44.2857142857" xlink:href="#block"/><use x="107.1428571429" y="44.2857142857" xlink:href="#block"/><use x="110.0000000000" y="44.2857142857" xlink:href="#block"/><use x="112.8571428571" y="44.2857142857" xlink:href="#block"/><use x="118.5714285714" y="44.2857142857" xlink:href="#block"/><use x="124.2857142857" y="44.2857142857" xlink:href="#block"/><use x="127.1428571429" y="44.2857142857" xlink:href="#block"/><use x="132.8571428571" y="44.2857142857" xlink:href="#block"/><use x="135.7142857143" y="44.2857142857" xlink:href="#block"/><use x="147.1428571429" y="44.2857142857" xlink:href="#block"/><use x="10.0000000000" y="47.1428571429" xlink:href="#block"/><use x="12.8571428571" y="47.1428571429" xlink:href="#block"/><use x="15.7142857143" y="47.1428571429" xlink:href="#block"/><use x="21.4285714286" y="47.1428571429" xlink:href="#block"/><use x="24.2857142857" y="47.1428571429" xlink:href="#block"/><use x="30.0000000000" y="47.1428571429" xlink:href="#block"/><use x="35.7142857143" y="47.1428571429" xlink:href="#block"/><use x="38.5714285714" y="47.1428571429" xlink:href="#block"/><use x="44.2857142857" y="47.1428571429" xlink:href="#block"/><use x="47.1428571429" y="47.1428571429" xlink:href="#block"/><use x="50.0000000000" y="47.1428571429" xlink:href="#block"/><use x="55.7142857143" y="47.1428571429" xlink:href="#block"/><use x="58.5714285714" y="47.1428571429" xlink:href="#block"/><use x="72.8571428571" y="47.1428571429" xlink:href="#block"/><use x="75.7142857143" y="47.1428571429" xlink:href="#block"/><use x="84.2857142857" y="47.1428571429" xlink:href="#block"/><use x="87.1428571429" y="47.1428571429" xlink:href="#block"/><use x="90.0000000000" y="47.1428571429" xlink:href="#block"/><use x="92.8571428571" y="47.1428571429" xlink:href="#block"/><use x="98.5714285714" y="47.1428571429" xlink:href="#block"/><use x="101.4285714286" y="47.1428571429" xlink:href="#block"/><use x="104.2857142857" y="47.1428571429" xlink:href="#block"/><use x="115.7142857143" y="47.1428571429" xlink:href="#block"/><use x="121.4285714286" y="47.1428571429" xlink:href="#block"/><use x="130.0000000000" y="47.1428571429" xlink:href="#block"/><use x="135.7142857143" y="47.1428571429" xlink:href="#block"/><use x="138.5714285714" y="47.1428571429" xlink:href="#block"/><use x="144.2857142857" y="47.1428571429" xlink:href="#block"/><use x="10.0000000000" y="50.0000000000" xlink:href="#block"/><use x="12.8571428571" y="50.0000000000" xlink:href="#block"/><use x="24.2857142857" y="50.0000000000" xlink:href="#block"/><use x="27.1428571429" y="50.0000000000" xlink:href="#block"/><use x="35.7142857143" y="50.0000000000" xlink:href="#block"/><use x="38.5714285714" y="50.0000000000" xlink:href="#block"/><use x="44.2857142857" y="50.0000000000" xlink:href="#block"/><use x="47.1428571429" y="50.0000000000" xlink:href="#block"/><use x="50.0000000000" y="50.0000000000" xlink:href="#block"/><use x="58.5714285714" y="50.0000000000" xlink:href="#block"/><use x="64.2857142857" y="50.0000000000" xlink:href="#block"/><use x="70.0000000000" y="50.0000000000" xlink:href="#block"/><use x="81.4285714286" y="50.0000000000" xlink:href="#block"/><use x="87.1428571429" y="50.0000000000" xlink:href="#block"/><use x="92.8571428571" y="50.0000000000" xlink:href="#block"/><use x="95.7142857143" y="50.0000000000" xlink:href="#block"/><use x="101.4285714286" y="50.0000000000" xlink:href="#block"/><use x="104.2857142857" y="50.0000000000" xlink:href="#block"/><use x="107.1428571429" y="50.0000000000" xlink:href="#block"/><use x="110.0000000000" y="50.0000000000" xlink:href="#block"/><use x="112.8571428571" y="50.0000000000" xlink:href="#block"/><use x="115.7142857143" y="50.0000000000" xlink:href="#block"/><use x="124.2857142857" y="50.0000000000" xlink:href="#block"/><use x="130.0000000000" y="50.0000000000" xlink:href="#block"/><use x="132.8571428571" y="50.0000000000" xlink:href="#block"/><use x="141.4285714286" y="50.0000000000" xlink:href="#block"/><use x="144.2857142857" y="50.0000000000" xlink:href="#block"/><use x="18.5714285714" y="52.8571428571" xlink:href="#block"/><use x="24.2857142857" y="52.8571428571" xlink:href="#block"/><use x="30.0000000000" y="52.8571428571" xlink:href="#block"/><use x="38.5714285714" y="52.8571428571" xlink:href="#block"/><use x="44.2857142857" y="52.8571428571" xlink:href="#block"/><use x="47.1428571429" y="52.8571428571" xlink:href="#block"/><use x="50.0000000000" y="52.8571428571" xlink:href="#block"/><use x="55.7142857143" y="52.8571428571" xlink:href="#block"/><use x="61.4285714286" y="52.8571428571" xlink:href="#block"/><use x="64.2857142857" y="52.8571428571" xlink:href="#block"/><use x="67.1428571429" y="52.8571428571" xlink:href="#block"/><use x="70.0000000000" y="52.8571428571" xlink:href="#block"/><use x="75.7142857143" y="52.8571428571" xlink:href="#block"/><use x="78.5714285714" y="52.8571428571" xlink:href="#block"/><use x="84.2857142857" y="52.8571428571" xlink:href="#block"/><use x="90.0000000000" y="52.8571428571" xlink:href="#block"/><use x="92.8571428571" y="52.8571428571" xlink:href="#block"/><use x="98.5714285714" y="52.8571428571" xlink:href="#block"/><use x="104.2857142857" y="52.8571428571" xlink:href="#block"/><use x="110.0000000000" y="52.8571428571" xlink:href="#block"/><use x="130.0000000000" y="52.8571428571" xlink:href="#block"/><use x="135.7142857143" y="52.8571428571" xlink:href="#block"/><use x="138.5714285714" y="52.8571428571" xlink:href="#block"/><use x="141.4285714286" y="52.8571428571" xlink:href="#block"/><use x="15.7142857143" y="55.7142857143" xlink:href="#block"/><use x="21.4285714286" y="55.7142857143" xlink:href="#block"/><use x="27.1428571429" y="55.7142857143" xlink:href="#block"/><use x="32.8571428571" y="55.7142857143" xlink:href="#block"/><use x="35.7142857143" y="55.7142857143" xlink:href="#block"/><use x="41.4285714286" y="55.7142857143" xlink:href="#block"/><use x="52.8571428571" y="55.7142857143" xlink:href="#block"/><use x="58.5714285714" y="55.7142857143" xlink:href="#block"/><use x="61.4285714286" y="55.7142857143" xlink:href="#block"/><use x="70.0000000000" y="55.7142857143" xlink:href="#block"/><use x="75.7142857143" y="55.7142857143" xlink:href="#block"/><use x="78.5714285714" y="55.7142857143" xlink:href="#block"/><use x="81.4285714286" y="55.7142857143" xlink:href="#block"/><use x="90.0000000000" y="55.7142857143" xlink:href="#block"/><use x="92.8571428571" y="55.7142857143" xlink:href="#block"/><use x="95.7142857143" y="55.7142857143" xlink:href="#block"/><use x="101.4285714286" y="55.7142857143" xlink:href="#block"/><use x="110.0000000000" y="55.7142857143" xlink:href="#block"/><use x="115.7142857143" y="55.7142857143" xlink:href="#block"/><use x="121.4285714286" y="55.7142857143" xlink:href="#block"/><use x="127.1428571429" y="55.7142857143" xlink:href="#block"/><use x="132.8571428571" y="55.7142857143" xlink:href="#block"/><use x="135.7142857143" y="55.7142857143" xlink:href="#block"/><use x="147.1428571429" y="55.7142857143" xlink:href="#block"/><use x="24.2857142857" y="58.5714285714" xlink:href="#block"/><use x="30.0000000000" y="58.5714285714" xlink:href="#block"/><use x="35.7142857143" y="58.5714285714" xlink:href="#block"/><use x="38.5714285714" y="58.5714285714" xlink:href="#block"/><use x="41.4285714286" y="58.5714285714" xlink:href="#block"/><use x="44.2857142857" y="58.5714285714" xlink:href="#block"/><use x="52.8571428571" y="58.5714285714" xlink:href="#block"/><use x="64.2857142857" y="58.5714285714" xlink:href="#block"/><use x="75.7142857143" y="58.5714285714" xlink:href="#block"/><use x="78.5714285714" y="58.5714285714" xlink:href="#block"/><use x="81.4285714286" y="58.5714285714" xlink:href="#block"/><use x="90.0000000000" y="58.5714285714" xlink:href="#block"/><use x="92.8571428571" y="58.5714285714" xlink:href="#block"/><use x="98.5714285714" y="58.5714285714" xlink:href="#block"/><use x="101.4285714286" y="58.5714285714" xlink:href="#block"/><use x="104.2857142857" y="58.5714285714" xlink:href="#block"/><use x="124.2857142857" y="58.5714285714" xlink:href="#block"/><use x="130.0000000000" y="58.5714285714" xlink:href="#block"/><use x="135.7142857143" y="58.5714285714" xlink:href="#block"/><use x="144.2857142857" y="58.5714285714" xlink:href="#block"/><use x="15.7142857143" y="61.4285714286" xlink:href="#block"/><use x="27.1428571429" y="61.4285714286" xlink:href="#block"/><use x="30.0000000000" y="61.4285714286" xlink:href="#block"/><use x="47.1428571429" y="61.4285714286" xlink:href="#block"/><use x="50.0000000000" y="61.4285714286" xlink:href="#block"/><use x="58.5714285714" y="61.4285714286" xlink:href="#block"/><use x="67.1428571429" y="61.4285714286" xlink:href="#block"/><use x="75.7142857143" y="61.4285714286" xlink:href="#block"/><use x="81.4285714286" y="61.4285714286" xlink:href="#block"/><use x="84.2857142857" y="61.4285714286" xlink:href="#block"/><use x="87.1428571429" y="61.4285714286" xlink:href="#block"/><use x="95.7142857143" y="61.4285714286" xlink:href="#block"/><use x="101.4285714286" y="61.4285714286" xlink:href="#block"/><use x="112.8571428571" y="61.4285714286" xlink:href="#block"/><use x="115.7142857143" y="61.4285714286" xlink:href="#block"/><use x="121.4285714286" y="61.4285714286" xlink:href="#block"/><use x="124.2857142857" y="61.4285714286" xlink:href="#block"/><use x="127.1428571429" y="61.4285714286" xlink:href="#block"/><use x="132.8571428571" y="61.4285714286" xlink:href="#block"/><use x="138.5714285714" y="61.4285714286" xlink:href="#block"/><use x="144.2857142857" y="61.4285714286" xlink:href="#block"/><use x="12.8571428571" y="64.2857142857" xlink:href="#block"/><use x="21.4285714286" y="64.2857142857" xlink:href="#block"/><use x="32.8571428571" y="64.2857142857" xlink:href="#block"/><use x="50.0000000000" y="64.2857142857" xlink:href="#block"/><use x="52.8571428571" y="64.2857142857" xlink:href="#block"/><use x="55.7142857143" y="64.2857142857" xlink:href="#block"/><use x="58.5714285714" y="64.2857142857" xlink:href="#block"/><use x="61.4285714286" y="64.2857142857" xlink:href="#block"/><use x="64.2857142857" y="64.2857142857" xlink:href="#block"/><use x="67.1428571429" y="64.2857142857" xlink:href="#block"/><use x="70.0000000000" y="64.2857142857" xlink:href="#block"/><use x="78.5714285714" y="64.2857142857" xlink:href="#block"/><use x="81.4285714286" y="64.2857142857" xlink:href="#block"/><use x="84.2857142857" y="64.2857142857" xlink:href="#block"/><use x="87.1428571429" y="64.2857142857" xlink:href="#block"/><use x="90.0000000000" y="64.2857142857" xlink:href="#block"/><use x="112.8571428571" y="64.2857142857" xlink:href="#block"/><use x="124.2857142857" y="64.2857142857" xlink:href="#block"/><use x="127.1428571429" y="64.2857142857" xlink:href="#block"/><use x="130.0000000000" y="64.2857142857" xlink:href="#block"/><use x="138.5714285714" y="64.2857142857" xlink:href="#block"/><use x="141.4285714286" y="64.2857142857" xlink:href="#block"/><use x="10.0000000000" y="67.1428571429" xlink:href="#block"/><use x="12.8571428571" y="67.1428571429" xlink:href="#block"/><use x="27.1428571429" y="67.1428571429" xlink:href="#block"/><use x="32.8571428571" y="67.1428571429" xlink:href="#block"/><use x="38.5714285714" y="67.1428571429" xlink:href="#block"/><use x="44.2857142857" y="67.1428571429" xlink:href="#block"/><use x="55.7142857143" y="67.1428571429" xlink:href="#block"/><use x="61.4285714286" y="67.1428571429" xlink:href="#block"/><use x="64.2857142857" y="67.1428571429" xlink:href="#block"/><use x="67.1428571429" y="67.1428571429" xlink:href="#block"/><use x="70.0000000000" y="67.1428571429" xlink:href="#block"/><use x="72.8571428571" y="67.1428571429" xlink:href="#block"/><use x="95.7142857143" y="67.1428571429" xlink:href="#block"/><use x="98.5714285714" y="67.1428571429" xlink:href="#block"/><use x="101.4285714286" y="67.1428571429" xlink:href="#block"/><use x="107.1428571429" y="67.1428571429" xlink:href="#block"/><use x="112.8571428571" y="67.1428571429" xlink:href="#block"/><use x="115.7142857143" y="67.1428571429" xlink:href="#block"/><use x="118.5714285714" y="67.1428571429" xlink:href="#block"/><use x="124.2857142857" y="67.1428571429" xlink:href="#block"/><use x="127.1428571429" y="67.1428571429" xlink:href="#block"/><use x="132.8571428571" y="67.1428571429" xlink:href="#block"/><use x="144.2857142857" y="67.1428571429" xlink:href="#block"/><use x="147.1428571429" y="67.1428571429" xlink:href="#block"/><use x="10.0000000000" y="70.0000000000" xlink:href="#block"/><use x="15.7142857143" y="70.0000000000" xlink:href="#block"/><use x="21.4285714286" y="70.0000000000" xlink:href="#block"/><use x="24.2857142857" y="70.0000000000" xlink:href="#block"/><use x="38.5714285714" y="70.0000000000" xlink:href="#block"/><use x="41.4285714286" y="70.0000000000" xlink:href="#block"/><use x="44.2857142857" y="70.0000000000" xlink:href="#block"/><use x="50.0000000000" y="70.0000000000" xlink:href="#block"/><use x="52.8571428571" y="70.0000000000" xlink:href="#block"/><use x="55.7142857143" y="70.0000000000" xlink:href="#block"/><use x="61.4285714286" y="70.0000000000" xlink:href="#block"/><use x="64.2857142857" y="70.0000000000" xlink:href="#block"/><use x="70.0000000000" y="70.0000000000" xlink:href="#block"/><use x="72.8571428571" y="70.0000000000" xlink:href="#block"/><use x="87.1428571429" y="70.0000000000" xlink:href="#block"/><use x="90.0000000000" y="70.0000000000" xlink:href="#block"/><use x="95.7142857143" y="70.0000000000" xlink:href="#block"/><use x="98.5714285714" y="70.0000000000" xlink:href="#block"/><use x="110.0000000000" y="70.0000000000" xlink:href="#block"/><use x="118.5714285714" y="70.0000000000" xlink:href="#block"/><use x="121.4285714286" y="70.0000000000" xlink:href="#block"/><use x="127.1428571429" y="70.0000000000" xlink:href="#block"/><use x="130.0000000000" y="70.0000000000" xlink:href="#block"/><use x="132.8571428571" y="70.0000000000" xlink:href="#block"/><use x="135.7142857143" y="70.0000000000" xlink:href="#block"/><use x="147.1428571429" y="70.0000000000" xlink:href="#block"/><use x="12.8571428571" y="72.8571428571" xlink:href="#block"/><use x="15.7142857143" y="72.8571428571" xlink:href="#block"/><use x="21.4285714286" y="72.8571428571" xlink:href="#block"/><use x="24.2857142857" y="72.8571428571" xlink:href="#block"/><use x="27.1428571429" y="72.8571428571" xlink:href="#block"/><use x="30.0000000000" y="72.8571428571" xlink:href="#block"/><use x="32.8571428571" y="72.8571428571" xlink:href="#block"/><use x="38.5714285714" y="72.8571428571" xlink:href="#block"/><use x="44.2857142857" y="72.8571428571" xlink:href="#block"/><use x="55.7142857143" y="72.8571428571" xlink:href="#block"/><use x="58.5714285714" y="72.8571428571" xlink:href="#block"/><use x="67.1428571429" y="72.8571428571" xlink:href="#block"/><use x="72.8571428571" y="72.8571428571" xlink:href="#block"/><use x="75.7142857143" y="72.8571428571" xlink:href="#block"/><use x="78.5714285714" y="72.8571428571" xlink:href="#block"/><use x="81.4285714286" y="72.8571428571" xlink:href="#block"/><use x="84.2857142857" y="72.8571428571" xlink:href="#block"/><use x="90.0000000000" y="72.8571428571" xlink:href="#block"/><use x="95.7142857143" y="72.8571428571" xlink:href="#block"/><use x="107.1428571429" y="72.8571428571" xlink:href="#block"/><use x="112.8571428571" y="72.8571428571" xlink:href="#block"/><use x="118.5714285714" y="72.8571428571" xlink:href="#block"/><use x="124.2857142857" y="72.8571428571" xlink:href="#block"/><use x="127.1428571429" y="72.8571428571" xlink:href="#block"/><use x="130.0000000000" y="72.8571428571" xlink:href="#block"/><use x="132.8571428571" y="72.8571428571" xlink:href="#block"/><use x="135.7142857143" y="72.8571428571" xlink:href="#block"/><use x="141.4285714286" y="72.8571428571" xlink:href="#block"/><use x="144.2857142857" y="72.8571428571" xlink:href="#block"/><use x="147.1428571429" y="72.8571428571" xlink:href="#block"/><use x="10.0000000000" y="75.7142857143" xlink:href="#block"/><use x="15.7142857143" y="75.7142857143" xlink:href="#block"/><use x="21.4285714286" y="75.7142857143" xlink:href="#block"/><use x="32.8571428571" y="75.7142857143" xlink:href="#block"/><use x="35.7142857143" y="75.7142857143" xlink:href="#block"/><use x="41.4285714286" y="75.7142857143" xlink:href="#block"/><use x="50.0000000000" y="75.7142857143" xlink:href="#block"/><use x="52.8571428571" y="75.7142857143" xlink:href="#block"/><use x="61.4285714286" y="75.7142857143" xlink:href="#block"/><use x="64.2857142857" y="75.7142857143" xlink:href="#block"/><use x="67.1428571429" y="75.7142857143" xlink:href="#block"/><use x="72.8571428571" y="75.7142857143" xlink:href="#block"/><use x="84.2857142857" y="75.7142857143" xlink:href="#block"/><use x="87.1428571429" y="75.7142857143" xlink:href="#block"/><use x="90.0000000000" y="75.7142857143" xlink:href="#block"/><use x="92.8571428571" y="75.7142857143" xlink:href="#block"/><use x="95.7142857143" y="75.7142857143" xlink:href="#block"/><use x="110.0000000000" y="75.7142857143" xlink:href="#block"/><use x="112.8571428571" y="75.7142857143" xlink:href="#block"/><use x="124.2857142857" y="75.7142857143" xlink:href="#block"/><use x="135.7142857143" y="75.7142857143" xlink:href="#block"/><use x="138.5714285714" y="75.7142857143" xlink:href="#block"/><use x="141.4285714286" y="75.7142857143" xlink:href="#block"/><use x="10.0000000000" y="78.5714285714" xlink:href="#block"/><use x="12.8571428571" y="78.5714285714" xlink:href="#block"/><use x="21.4285714286" y="78.5714285714" xlink:href="#block"/><use x="27.1428571429" y="78.5714285714" xlink:href="#block"/><use x="32.8571428571" y="78.5714285714" xlink:href="#block"/><use x="41.4285714286" y="78.5714285714" xlink:href="#block"/><use x="47.1428571429" y="78.5714285714" xlink:href="#block"/><use x="50.0000000000" y="78.5714285714" xlink:href="#block"/><use x="64.2857142857" y="78.5714285714" xlink:href="#block"/><use x="72.8571428571" y="78.5714285714" xlink:href="#block"/><use x="78.5714285714" y="78.5714285714" xlink:href="#block"/><use x="84.2857142857" y="78.5714285714" xlink:href="#block"/><use x="92.8571428571" y="78.5714285714" xlink:href="#block"/><use x="98.5714285714" y="78.5714285714" xlink:href="#block"/><use x="101.4285714286" y="78.5714285714" xlink:href="#block"/><use x="104.2857142857" y="78.5714285714" xlink:href="#block"/><use x="107.1428571429" y="78.5714285714" xlink:href="#block"/><use x="110.0000000000" y="78.5714285714" xlink:href="#block"/><use x="112.8571428571" y="78.5714285714" xlink:href="#block"/><use x="118.5714285714" y="78.5714285714" xlink:href="#block"/><use x="124.2857142857" y="78.5714285714" xlink:href="#block"/><use x="130.0000000000" y="78.5714285714" xlink:href="#block"/><use x="135.7142857143" y="78.5714285714" xlink:href="#block"/><use x="138.5714285714" y="78.5714285714" xlink:href="#block"/><use x="141.4285714286" y="78.5714285714" xlink:href="#block"/><use x="10.0000000000" y="81.4285714286" xlink:href="#block"/><use x="15.7142857143" y="81.4285714286" xlink:href="#block"/><use x="21.4285714286" y="81.4285714286" xlink:href="#block"/><use x="32.8571428571" y="81.4285714286" xlink:href="#block"/><use x="35.7142857143" y="81.4285714286" xlink:href="#block"/><use x="41.4285714286" y="81.4285714286" xlink:href="#block"/><use x="44.2857142857" y="81.4285714286" xlink:href="#block"/><use x="47.1428571429" y="81.4285714286" xlink:href="#block"/><use x="50.0000000000" y="81.4285714286" xlink:href="#block"/><use x="52.8571428571" y="81.4285714286" xlink:href="#block"/><use x="58.5714285714" y="81.4285714286" xlink:href="#block"/><use x="61.4285714286" y="81.4285714286" xlink:href="#block"/><use x="64.2857142857" y="81.4285714286" xlink:href="#block"/><use x="70.0000000000" y="81.4285714286" xlink:href="#block"/><use x="72.8571428571" y="81.4285714286" xlink:href="#block"/><use x="84.2857142857" y="81.4285714286" xlink:href="#block"/><use x="90.0000000000" y="81.4285714286" xlink:href="#block"/><use x="101.4285714286" y="81.4285714286" xlink:href="#block"/><use x="107.1428571429" y="81.4285714286" xlink:href="#block"/><use x="115.7142857143" y="81.4285714286" xlink:href="#block"/><use x="118.5714285714" y="81.4285714286" xlink:href="#block"/><use x="121.4285714286" y="81.4285714286" xlink:href="#block"/><use x="124.2857142857" y="81.4285714286" xlink:href="#block"/><use x="135.7142857143" y="81.4285714286" xlink:href="#block"/><use x="147.1428571429" y="81.4285714286" xlink:href="#block"/><use x="12.8571428571" y="84.2857142857" xlink:href="#block"/><use x="15.7142857143" y="84.2857142857" xlink:href="#block"/><use x="21.4285714286" y="84.2857142857" xlink:href="#block"/><use x="24.2857142857" y="84.2857142857" xlink:href="#block"/><use x="27.1428571429" y="84.2857142857" xlink:href="#block"/><use x="30.0000000000" y="84.2857142857" xlink:href="#block"/><use x="32.8571428571" y="84.2857142857" xlink:href="#block"/><use x="35.7142857143" y="84.2857142857" xlink:href="#block"/><use x="38.5714285714" y="84.2857142857" xlink:href="#block"/><use x="44.2857142857" y="84.2857142857" xlink:href="#block"/><use x="58.5714285714" y="84.2857142857" xlink:href="#block"/><use x="61.4285714286" y="84.2857142857" xlink:href="#block"/><use x="67.1428571429" y="84.2857142857" xlink:href="#block"/><use x="72.8571428571" y="84.2857142857" xlink:href="#block"/><use x="75.7142857143" y="84.2857142857" xlink:href="#block"/><use x="78.5714285714" y="84.2857142857" xlink:href="#block"/><use x="81.4285714286" y="84.2857142857" xlink:href="#block"/><use x="84.2857142857" y="84.2857142857" xlink:href="#block"/><use x="87.1428571429" y="84.2857142857" xlink:href="#block"/><use x="90.0000000000" y="84.2857142857" xlink:href="#block"/><use x="92.8571428571" y="84.2857142857" xlink:href="#block"/><use x="95.7142857143" y="84.2857142857" xlink:href="#block"/><use x="98.5714285714" y="84.2857142857" xlink:href="#block"/><use x="101.4285714286" y="84.2857142857" xlink:href="#block"/><use x="104.2857142857" y="84.2857142857" xlink:href="#block"/><use x="110.0000000000" y="84.2857142857" xlink:href="#block"/><use x="112.8571428571" y="84.2857142857" xlink:href="#block"/><use x="115.7142857143" y="84.2857142857" xlink:href="#block"/><use x="118.5714285714" y="84.2857142857" xlink:href="#block"/><use x="124.2857142857" y="84.2857142857" xlink:href="#block"/><use x="127.1428571429" y="84.2857142857" xlink:href="#block"/><use x="130.0000000000" y="84.2857142857" xlink:href="#block"/><use x="132.8571428571" y="84.2857142857" xlink:href="#block"/><use x="135.7142857143" y="84.2857142857" xlink:href="#block"/><use x="138.5714285714" y="84.2857142857" xlink:href="#block"/><use x="141.4285714286" y="84.2857142857" xlink:href="#block"/><use x="147.1428571429" y="84.2857142857" xlink:href="#block"/><use x="12.8571428571" y="87.1428571429" xlink:href="#block"/><use x="15.7142857143" y="87.1428571429" xlink:href="#block"/><use x="21.4285714286" y="87.1428571429" xlink:href="#block"/><use x="35.7142857143" y="87.1428571429" xlink:href="#block"/><use x="38.5714285714" y="87.1428571429" xlink:href="#block"/><use x="41.4285714286" y="87.1428571429" xlink:href="#block"/><use x="44.2857142857" y="87.1428571429" xlink:href="#block"/><use x="52.8571428571" y="87.1428571429" xlink:href="#block"/><use x="58.5714285714" y="87.1428571429" xlink:href="#block"/><use x="64.2857142857" y="87.1428571429" xlink:href="#block"/><use x="70.0000000000" y="87.1428571429" xlink:href="#block"/><use x="72.8571428571" y="87.1428571429" xlink:href="#block"/><use x="81.4285714286" y="87.1428571429" xlink:href="#block"/><use x="84.2857142857" y="87.1428571429" xlink:href="#block"/><use x="87.1428571429" y="87.1428571429" xlink:href="#block"/><use x="90.0000000000" y="87.1428571429" xlink:href="#block"/><use x="95.7142857143" y="87.1428571429" xlink:href="#block"/><use x="98.5714285714" y="87.1428571429" xlink:href="#block"/><use x="101.4285714286" y="87.1428571429" xlink:href="#block"/><use x="104.2857142857" y="87.1428571429" xlink:href="#block"/><use x="110.0000000000" y="87.1428571429" xlink:href="#block"/><use x="121.4285714286" y="87.1428571429" xlink:href="#block"/><use x="124.2857142857" y="87.1428571429" xlink:href="#block"/><use x="130.0000000000" y="87.1428571429" xlink:href="#block"/><use x="132.8571428571" y="87.1428571429" xlink:href="#block"/><use x="138.5714285714" y="87.1428571429" xlink:href="#block"/><use x="144.2857142857" y="87.1428571429" xlink:href="#block"/><use x="15.7142857143" y="90.0000000000" xlink:href="#block"/><use x="21.4285714286" y="90.0000000000" xlink:href="#block"/><use x="24.2857142857" y="90.0000000000" xlink:href="#block"/><use x="27.1428571429" y="90.0000000000" xlink:href="#block"/><use x="35.7142857143" y="90.0000000000" xlink:href="#block"/><use x="38.5714285714" y="90.0000000000" xlink:href="#block"/><use x="41.4285714286" y="90.0000000000" xlink:href="#block"/><use x="50.0000000000" y="90.0000000000" xlink:href="#block"/><use x="55.7142857143" y="90.0000000000" xlink:href="#block"/><use x="70.0000000000" y="90.0000000000" xlink:href="#block"/><use x="81.4285714286" y="90.0000000000" xlink:href="#block"/><use x="84.2857142857" y="90.0000000000" xlink:href="#block"/><use x="90.0000000000" y="90.0000000000" xlink:href="#block"/><use x="92.8571428571" y="90.0000000000" xlink:href="#block"/><use x="95.7142857143" y="90.0000000000" xlink:href="#block"/><use x="98.5714285714" y="90.0000000000" xlink:href="#block"/><use x="107.1428571429" y="90.0000000000" xlink:href="#block"/><use x="110.0000000000" y="90.0000000000" xlink:href="#block"/><use x="115.7142857143" y="90.0000000000" xlink:href="#block"/><use x="118.5714285714" y="90.0000000000" xlink:href="#block"/><use x="121.4285714286" y="90.0000000000" xlink:href="#block"/><use x="124.2857142857" y="90.0000000000" xlink:href="#block"/><use x="130.0000000000" y="90.0000000000" xlink:href="#block"/><use x="138.5714285714" y="90.0000000000" xlink:href="#block"/><use x="141.4285714286" y="90.0000000000" xlink:href="#block"/><use x="147.1428571429" y="90.0000000000" xlink:href="#block"/><use x="12.8571428571" y="92.8571428571" xlink:href="#block"/><use x="24.2857142857" y="92.8571428571" xlink:href="#block"/><use x="30.0000000000" y="92.8571428571" xlink:href="#block"/><use x="38.5714285714" y="92.8571428571" xlink:href="#block"/><use x="50.0000000000" y="92.8571428571" xlink:href="#block"/><use x="52.8571428571" y="92.8571428571" xlink:href="#block"/><use x="55.7142857143" y="92.8571428571" xlink:href="#block"/><use x="58.5714285714" y="92.8571428571" xlink:href="#block"/><use x="61.4285714286" y="92.8571428571" xlink:href="#block"/><use x="64.2857142857" y="92.8571428571" xlink:href="#block"/><use x="67.1428571429" y="92.8571428571" xlink:href="#block"/><use x="70.0000000000" y="92.8571428571" xlink:href="#block"/><use x="72.8571428571" y="92.8571428571" xlink:href="#block"/><use x="75.7142857143" y="92.8571428571" xlink:href="#block"/><use x="84.2857142857" y="92.8571428571" xlink:href="#block"/><use x="95.7142857143" y="92.8571428571" xlink:href="#block"/><use x="98.5714285714" y="92.8571428571" xlink:href="#block"/><use x="101.4285714286" y="92.8571428571" xlink:href="#block"/><use x="124.2857142857" y="92.8571428571" xlink:href="#block"/><use x="12.8571428571" y="95.7142857143" xlink:href="#block"/><use x="18.5714285714" y="95.7142857143" xlink:href="#block"/><use x="27.1428571429" y="95.7142857143" xlink:href="#block"/><use x="32.8571428571" y="95.7142857143" xlink:href="#block"/><use x="47.1428571429" y="95.7142857143" xlink:href="#block"/><use x="50.0000000000" y="95.7142857143" xlink:href="#block"/><use x="52.8571428571" y="95.7142857143" xlink:href="#block"/><use x="55.7142857143" y="95.7142857143" xlink:href="#block"/><use x="61.4285714286" y="95.7142857143" xlink:href="#block"/><use x="64.2857142857" y="95.7142857143" xlink:href="#block"/><use x="67.1428571429" y="95.7142857143" xlink:href="#block"/><use x="70.0000000000" y="95.7142857143" xlink:href="#block"/><use x="72.8571428571" y="95.7142857143" xlink:href="#block"/><use x="84.2857142857" y="95.7142857143" xlink:href="#block"/><use x="87.1428571429" y="95.7142857143" xlink:href="#block"/><use x="90.0000000000" y="95.7142857143" xlink:href="#block"/><use x="92.8571428571" y="95.7142857143" xlink:href="#block"/><use x="112.8571428571" y="95.7142857143" xlink:href="#block"/><use x="115.7142857143" y="95.7142857143" xlink:href="#block"/><use x="121.4285714286" y="95.7142857143" xlink:href="#block"/><use x="124.2857142857" y="95.7142857143" xlink:href="#block"/><use x="127.1428571429" y="95.7142857143" xlink:href="#block"/><use x="132.8571428571" y="95.7142857143" xlink:href="#block"/><use x="135.7142857143" y="95.7142857143" xlink:href="#block"/><use x="141.4285714286" y="95.7142857143" xlink:href="#block"/><use x="144.2857142857" y="95.7142857143" xlink:href="#block"/><use x="21.4285714286" y="98.5714285714" xlink:href="#block"/><use x="35.7142857143" y="98.5714285714" xlink:href="#block"/><use x="38.5714285714" y="98.5714285714" xlink:href="#block"/><use x="41.4285714286" y="98.5714285714" xlink:href="#block"/><use x="44.2857142857" y="98.5714285714" xlink:href="#block"/><use x="50.0000000000" y="98.5714285714" xlink:href="#block"/><use x="52.8571428571" y="98.5714285714" xlink:href="#block"/><use x="55.7142857143" y="98.5714285714" xlink:href="#block"/><use x="78.5714285714" y="98.5714285714" xlink:href="#block"/><use x="84.2857142857" y="98.5714285714" xlink:href="#block"/><use x="92.8571428571" y="98.5714285714" xlink:href="#block"/><use x="98.5714285714" y="98.5714285714" xlink:href="#block"/><use x="110.0000000000" y="98.5714285714" xlink:href="#block"/><use x="112.8571428571" y="98.5714285714" xlink:href="#block"/><use x="115.7142857143" y="98.5714285714" xlink:href="#block"/><use x="124.2857142857" y="98.5714285714" xlink:href="#block"/><use x="138.5714285714" y="98.5714285714" xlink:href="#block"/><use x="15.7142857143" y="101.4285714286" xlink:href="#block"/><use x="21.4285714286" y="101.4285714286" xlink:href="#block"/><use x="27.1428571429" y="101.4285714286" xlink:href="#block"/><use x="44.2857142857" y="101.4285714286" xlink:href="#block"/><use x="47.1428571429" y="101.4285714286" xlink:href="#block"/><use x="50.0000000000" y="101.4285714286" xlink:href="#block"/><use x="52.8571428571" y="101.4285714286" xlink:href="#block"/><use x="55.7142857143" y="101.4285714286" xlink:href="#block"/><use x="61.4285714286" y="101.4285714286" xlink:href="#block"/><use x="64.2857142857" y="101.4285714286" xlink:href="#block"/><use x="72.8571428571" y="101.4285714286" xlink:href="#block"/><use x="75.7142857143" y="101.4285714286" xlink:href="#block"/><use x="78.5714285714" y="101.4285714286" xlink:href="#block"/><use x="90.0000000000" y="101.4285714286" xlink:href="#block"/><use x="92.8571428571" y="101.4285714286" xlink:href="#block"/><use x="104.2857142857" y="101.4285714286" xlink:href="#block"/><use x="107.1428571429" y="101.4285714286" xlink:href="#block"/><use x="112.8571428571" y="101.4285714286" xlink:href="#block"/><use x="115.7142857143" y="101.4285714286" xlink:href="#block"/><use x="118.5714285714" y="101.4285714286" xlink:href="#block"/><use x="127.1428571429" y="101.4285714286" xlink:href="#block"/><use x="130.0000000000" y="101.4285714286" xlink:href="#block"/><use x="138.5714285714" y="101.4285714286" xlink:href="#block"/><use x="144.2857142857" y="101.4285714286" xlink:href="#block"/><use x="147.1428571429" y="101.4285714286" xlink:href="#block"/><use x="15.7142857143" y="104.2857142857" xlink:href="#block"/><use x="24.2857142857" y="104.2857142857" xlink:href="#block"/><use x="30.0000000000" y="104.2857142857" xlink:href="#block"/><use x="35.7142857143" y="104.2857142857" xlink:href="#block"/><use x="38.5714285714" y="104.2857142857" xlink:href="#block"/><use x="44.2857142857" y="104.2857142857" xlink:href="#block"/><use x="47.1428571429" y="104.2857142857" xlink:href="#block"/><use x="61.4285714286" y="104.2857142857" xlink:href="#block"/><use x="64.2857142857" y="104.2857142857" xlink:href="#block"/><use x="67.1428571429" y="104.2857142857" xlink:href="#block"/><use x="75.7142857143" y="104.2857142857" xlink:href="#block"/><use x="78.5714285714" y="104.2857142857" xlink:href="#block"/><use x="81.4285714286" y="104.2857142857" xlink:href="#block"/><use x="90.0000000000" y="104.2857142857" xlink:href="#block"/><use x="92.8571428571" y="104.2857142857" xlink:href="#block"/><use x="98.5714285714" y="104.2857142857" xlink:href="#block"/><use x="107.1428571429" y="104.2857142857" xlink:href="#block"/><use x="110.0000000000" y="104.2857142857" xlink:href="#block"/><use x="112.8571428571" y="104.2857142857" xlink:href="#block"/><use x="115.7142857143" y="104.2857142857" xlink:href="#block"/><use x="124.2857142857" y="104.2857142857" xlink:href="#block"/><use x="144.2857142857" y="104.2857142857" xlink:href="#block"/><use x="15.7142857143" y="107.1428571429" xlink:href="#block"/><use x="24.2857142857" y="107.1428571429" xlink:href="#block"/><use x="27.1428571429" y="107.1428571429" xlink:href="#block"/><use x="32.8571428571" y="107.1428571429" xlink:href="#block"/><use x="35.7142857143" y="107.1428571429" xlink:href="#block"/><use x="44.2857142857" y="107.1428571429" xlink:href="#block"/><use x="52.8571428571" y="107.1428571429" xlink:href="#block"/><use x="64.2857142857" y="107.1428571429" xlink:href="#block"/><use x="67.1428571429" y="107.1428571429" xlink:href="#block"/><use x="78.5714285714" y="107.1428571429" xlink:href="#block"/><use x="87.1428571429" y="107.1428571429" xlink:href="#block"/><use x="90.0000000000" y="107.1428571429" xlink:href="#block"/><use x="112.8571428571" y="107.1428571429" xlink:href="#block"/><use x="121.4285714286" y="107.1428571429" xlink:href="#block"/><use x="127.1428571429" y="107.1428571429" xlink:href="#block"/><use x="132.8571428571" y="107.1428571429" xlink:href="#block"/><use x="135.7142857143" y="107.1428571429" xlink:href="#block"/><use x="138.5714285714" y="107.1428571429" xlink:href="#block"/><use x="141.4285714286" y="107.1428571429" xlink:href="#block"/><use x="147.1428571429" y="107.1428571429" xlink:href="#block"/><use x="10.0000000000" y="110.0000000000" xlink:href="#block"/><use x="12.8571428571" y="110.0000000000" xlink:href="#block"/><use x="15.7142857143" y="110.0000000000" xlink:href="#block"/><use x="24.2857142857" y="110.0000000000" xlink:href="#block"/><use x="30.0000000000" y="110.0000000000" xlink:href="#block"/><use x="50.0000000000" y="110.0000000000" xlink:href="#block"/><use x="52.8571428571" y="110.0000000000" xlink:href="#block"/><use x="55.7142857143" y="110.0000000000" xlink:href="#block"/><use x="58.5714285714" y="110.0000000000" xlink:href="#block"/><use x="61.4285714286" y="110.0000000000" xlink:href="#block"/><use x="67.1428571429" y="110.0000000000" xlink:href="#block"/><use x="75.7142857143" y="110.0000000000" xlink:href="#block"/><use x="84.2857142857" y="110.0000000000" xlink:href="#block"/><use x="87.1428571429" y="110.0000000000" xlink:href="#block"/><use x="92.8571428571" y="110.0000000000" xlink:href="#block"/><use x="95.7142857143" y="110.0000000000" xlink:href="#block"/><use x="98.5714285714" y="110.0000000000" xlink:href="#block"/><use x="112.8571428571" y="110.0000000000" xlink:href="#block"/><use x="115.7142857143" y="110.0000000000" xlink:href="#block"/><use x="130.0000000000" y="110.0000000000" xlink:href="#block"/><use x="132.8571428571" y="110.0000000000" xlink:href="#block"/><use x="138.5714285714" y="110.0000000000" xlink:href="#block"/><use x="144.2857142857" y="110.0000000000" xlink:href="#block"/><use x="10.0000000000" y="112.8571428571" xlink:href="#block"/><use x="15.7142857143" y="112.8571428571" xlink:href="#block"/><use x="24.2857142857" y="112.8571428571" xlink:href="#block"/><use x="27.1428571429" y="112.8571428571" xlink:href="#block"/><use x="38.5714285714" y="112.8571428571" xlink:href="#block"/><use x="41.4285714286" y="112.8571428571" xlink:href="#block"/><use x="50.0000000000" y="112.8571428571" xlink:href="#block"/><use x="55.7142857143" y="112.8571428571" xlink:href="#block"/><use x="58.5714285714" y="112.8571428571" xlink:href="#block"/><use x="64.2857142857" y="112.8571428571" xlink:href="#block"/><use x="67.1428571429" y="112.8571428571" xlink:href="#block"/><use x="70.0000000000" y="112.8571428571" xlink:href="#block"/><use x="81.4285714286" y="112.8571428571" xlink:href="#block"/><use x="87.1428571429" y="112.8571428571" xlink:href="#block"/><use x="95.7142857143" y="112.8571428571" xlink:href="#block"/><use x="110.0000000000" y="112.8571428571" xlink:href="#block"/><use x="118.5714285714" y="112.8571428571" xlink:href="#block"/><use x="121.4285714286" y="112.8571428571" xlink:href="#block"/><use x="124.2857142857" y="112.8571428571" xlink:href="#block"/><use x="127.1428571429" y="112.8571428571" xlink:href="#block"/><use x="130.0000000000" y="112.8571428571" xlink:href="#block"/><use x="135.7142857143" y="112.8571428571" xlink:href="#block"/><use x="147.1428571429" y="112.8571428571" xlink:href="#block"/><use x="10.0000000000" y="115.7142857143" xlink:href="#block"/><use x="12.8571428571" y="115.7142857143" xlink:href="#block"/><use x="24.2857142857" y="115.7142857143" xlink:href="#block"/><use x="30.0000000000" y="115.7142857143" xlink:href="#block"/><use x="35.7142857143" y="115.7142857143" xlink:href="#block"/><use x="38.5714285714" y="115.7142857143" xlink:href="#block"/><use x="52.8571428571" y="115.7142857143" xlink:href="#block"/><use x="72.8571428571" y="115.7142857143" xlink:href="#block"/><use x="75.7142857143" y="115.7142857143" xlink:href="#block"/><use x="78.5714285714" y="115.7142857143" xlink:href="#block"/><use x="84.2857142857" y="115.7142857143" xlink:href="#block"/><use x="87.1428571429" y="115.7142857143" xlink:href="#block"/><use x="90.0000000000" y="115.7142857143" xlink:href="#block"/><use x="95.7142857143" y="115.7142857143" xlink:href="#block"/><use x="98.5714285714" y="115.7142857143" xlink:href="#block"/><use x="101.4285714286" y="115.7142857143" xlink:href="#block"/><use x="107.1428571429" y="115.7142857143" xlink:href="#block"/><use x="115.7142857143" y="115.7142857143" xlink:href="#block"/><use x="118.5714285714" y="115.7142857143" xlink:href="#block"/><use x="124.2857142857" y="115.7142857143" xlink:href="#block"/><use x="138.5714285714" y="115.7142857143" xlink:href="#block"/><use x="12.8571428571" y="118.5714285714" xlink:href="#block"/><use x="24.2857142857" y="118.5714285714" xlink:href="#block"/><use x="27.1428571429" y="118.5714285714" xlink:href="#block"/><use x="32.8571428571" y="118.5714285714" xlink:href="#block"/><use x="38.5714285714" y="118.5714285714" xlink:href="#block"/><use x="41.4285714286" y="118.5714285714" xlink:href="#block"/><use x="47.1428571429" y="118.5714285714" xlink:href="#block"/><use x="50.0000000000" y="118.5714285714" xlink:href="#block"/><use x="52.8571428571" y="118.5714285714" xlink:href="#block"/><use x="64.2857142857" y="118.5714285714" xlink:href="#block"/><use x="67.1428571429" y="118.5714285714" xlink:href="#block"/><use x="70.0000000000" y="118.5714285714" xlink:href="#block"/><use x="72.8571428571" y="118.5714285714" xlink:href="#block"/><use x="78.5714285714" y="118.5714285714" xlink:href="#block"/><use x="84.2857142857" y="118.5714285714" xlink:href="#block"/><use x="87.1428571429" y="118.5714285714" xlink:href="#block"/><use x="92.8571428571" y="118.5714285714" xlink:href="#block"/><use x="107.1428571429" y="118.5714285714" xlink:href="#block"/><use x="110.0000000000" y="118.5714285714" xlink:href="#block"/><use x="112.8571428571" y="118.5714285714" xlink:href="#block"/><use x="121.4285714286" y="118.5714285714" xlink:href="#block"/><use x="127.1428571429" y="118.5714285714" xlink:href="#block"/><use x="130.0000000000" y="118.5714285714" xlink:href="#block"/><use x="132.8571428571" y="118.5714285714" xlink:href="#block"/><use x="135.7142857143" y="118.5714285714" xlink:href="#block"/><use x="141.4285714286" y="118.5714285714" xlink:href="#block"/><use x="147.1428571429" y="118.5714285714" xlink:href="#block"/><use x="12.8571428571" y="121.4285714286" xlink:href="#block"/><use x="15.7142857143" y="121.4285714286" xlink:href="#block"/><use x="18.5714285714" y="121.4285714286" xlink:href="#block"/><use x="30.0000000000" y="121.4285714286" xlink:href="#block"/><use x="41.4285714286" y="121.4285714286" xlink:href="#block"/><use x="44.2857142857" y="121.4285714286" xlink:href="#block"/><use x="50.0000000000" y="121.4285714286" xlink:href="#block"/><use x="64.2857142857" y="121.4285714286" xlink:href="#block"/><use x="67.1428571429" y="121.4285714286" xlink:href="#block"/><use x="70.0000000000" y="121.4285714286" xlink:href="#block"/><use x="81.4285714286" y="121.4285714286" xlink:href="#block"/><use x="84.2857142857" y="121.4285714286" xlink:href="#block"/><use x="87.1428571429" y="121.4285714286" xlink:href="#block"/><use x="90.0000000000" y="121.4285714286" xlink:href="#block"/><use x="98.5714285714" y="121.4285714286" xlink:href="#block"/><use x="107.1428571429" y="121.4285714286" xlink:href="#block"/><use x="110.0000000000" y="121.4285714286" xlink:href="#block"/><use x="115.7142857143" y="121.4285714286" xlink:href="#block"/><use x="118.5714285714" y="121.4285714286" xlink:href="#block"/><use x="121.4285714286" y="121.4285714286" xlink:href="#block"/><use x="130.0000000000" y="121.4285714286" xlink:href="#block"/><use x="132.8571428571" y="121.4285714286" xlink:href="#block"/><use x="144.2857142857" y="121.4285714286" xlink:href="#block"/><use x="10.0000000000" y="124.2857142857" xlink:href="#block"/><use x="12.8571428571" y="124.2857142857" xlink:href="#block"/><use x="15.7142857143" y="124.2857142857" xlink:href="#block"/><use x="27.1428571429" y="124.2857142857" xlink:href="#block"/><use x="30.0000000000" y="124.2857142857" xlink:href="#block"/><use x="32.8571428571" y="124.2857142857" xlink:href="#block"/><use x="38.5714285714" y="124.2857142857" xlink:href="#block"/><use x="47.1428571429" y="124.2857142857" xlink:href="#block"/><use x="52.8571428571" y="124.2857142857" xlink:href="#block"/><use x="58.5714285714" y="124.2857142857" xlink:href="#block"/><use x="61.4285714286" y="124.2857142857" xlink:href="#block"/><use x="72.8571428571" y="124.2857142857" xlink:href="#block"/><use x="75.7142857143" y="124.2857142857" xlink:href="#block"/><use x="78.5714285714" y="124.2857142857" xlink:href="#block"/><use x="81.4285714286" y="124.2857142857" xlink:href="#block"/><use x="84.2857142857" y="124.2857142857" xlink:href="#block"/><use x="87.1428571429" y="124.2857142857" xlink:href="#block"/><use x="101.4285714286" y="124.2857142857" xlink:href="#block"/><use x="104.2857142857" y="124.2857142857" xlink:href="#block"/><use x="107.1428571429" y="124.2857142857" xlink:href="#block"/><use x="112.8571428571" y="124.2857142857" xlink:href="#block"/><use x="118.5714285714" y="124.2857142857" xlink:href="#block"/><use x="121.4285714286" y="124.2857142857" xlink:href="#block"/><use x="124.2857142857" y="124.2857142857" xlink:href="#block"/><use x="127.1428571429" y="124.2857142857" xlink:href="#block"/><use x="130.0000000000" y="124.2857142857" xlink:href="#block"/><use x="132.8571428571" y="124.2857142857" xlink:href="#block"/><use x="135.7142857143" y="124.2857142857" xlink:href="#block"/><use x="144.2857142857" y="124.2857142857" xlink:href="#block"/><use x="147.1428571429" y="124.2857142857" xlink:href="#block"/><use x="32.8571428571" y="127.1428571429" xlink:href="#block"/><use x="35.7142857143" y="127.1428571429" xlink:href="#block"/><use x="41.4285714286" y="127.1428571429" xlink:href="#block"/><use x="44.2857142857" y="127.1428571429" xlink:href="#block"/><use x="47.1428571429" y="127.1428571429" xlink:href="#block"/><use x="52.8571428571" y="127.1428571429" xlink:href="#block"/><use x="58.5714285714" y="127.1428571429" xlink:href="#block"/><use x="64.2857142857" y="127.1428571429" xlink:href="#block"/><use x="67.1428571429" y="127.1428571429" xlink:href="#block"/><use x="70.0000000000" y="127.1428571429" xlink:href="#block"/><use x="72.8571428571" y="127.1428571429" xlink:href="#block"/><use x="84.2857142857" y="127.1428571429" xlink:href="#block"/><use x="92.8571428571" y="127.1428571429" xlink:href="#block"/><use x="95.7142857143" y="127.1428571429" xlink:href="#block"/><use x="101.4285714286" y="127.1428571429" xlink:href="#block"/><use x="107.1428571429" y="127.1428571429" xlink:href="#block"/><use x="110.0000000000" y="127.1428571429" xlink:href="#block"/><use x="115.7142857143" y="127.1428571429" xlink:href="#block"/><use x="118.5714285714" y="127.1428571429" xlink:href="#block"/><use x="124.2857142857" y="127.1428571429" xlink:href="#block"/><use x="135.7142857143" y="127.1428571429" xlink:href="#block"/><use x="10.0000000000" y="130.0000000000" xlink:href="#block"/><use x="12.8571428571" y="130.0000000000" xlink:href="#block"/><use x="15.7142857143" y="130.0000000000" xlink:href="#block"/><use x="18.5714285714" y="130.0000000000" xlink:href="#block"/><use x="21.4285714286" y="130.0000000000" xlink:href="#block"/><use x="24.2857142857" y="130.0000000000" xlink:href="#block"/><use x="27.1428571429" y="130.0000000000" xlink:href="#block"/><use x="44.2857142857" y="130.0000000000" xlink:href="#block"/><use x="47.1428571429" y="130.0000000000" xlink:href="#block"/><use x="50.0000000000" y="130.0000000000" xlink:href="#block"/><use x="52.8571428571" y="130.0000000000" xlink:href="#block"/><use x="55.7142857143" y="130.0000000000" xlink:href="#block"/><use x="64.2857142857" y="130.0000000000" xlink:href="#block"/><use x="67.1428571429" y="130.0000000000" xlink:href="#block"/><use x="70.0000000000" y="130.0000000000" xlink:href="#block"/><use x="72.8571428571" y="130.0000000000" xlink:href="#block"/><use x="78.5714285714" y="130.0000000000" xlink:href="#block"/><use x="84.2857142857" y="130.0000000000" xlink:href="#block"/><use x="98.5714285714" y="130.0000000000" xlink:href="#block"/><use x="104.2857142857" y="130.0000000000" xlink:href="#block"/><use x="110.0000000000" y="130.0000000000" xlink:href="#block"/><use x="112.8571428571" y="130.0000000000" xlink:href="#block"/><use x="124.2857142857" y="130.0000000000" xlink:href="#block"/><use x="130.0000000000" y="130.0000000000" xlink:href="#block"/><use x="135.7142857143" y="130.0000000000" xlink:href="#block"/><use x="138.5714285714" y="130.0000000000" xlink:href="#block"/><use x="141.4285714286" y="130.0000000000" xlink:href="#block"/><use x="144.2857142857" y="130.0000000000" xlink:href="#block"/><use x="10.0000000000" y="132.8571428571" xlink:href="#block"/><use x="27.1428571429" y="132.8571428571" xlink:href="#block"/><use x="35.7142857143" y="132.8571428571" xlink:href="#block"/><use x="41.4285714286" y="132.8571428571" xlink:href="#block"/><use x="44.2857142857" y="132.8571428571" xlink:href="#block"/><use x="47.1428571429" y="132.8571428571" xlink:href="#block"/><use x="50.0000000000" y="132.8571428571" xlink:href="#block"/><use x="55.7142857143" y="132.8571428571" xlink:href="#block"/><use x="61.4285714286" y="132.8571428571" xlink:href="#block"/><use x="64.2857142857" y="132.8571428571" xlink:href="#block"/><use x="72.8571428571" y="132.8571428571" xlink:href="#block"/><use x="84.2857142857" y="132.8571428571" xlink:href="#block"/><use x="92.8571428571" y="132.8571428571" xlink:href="#block"/><use x="110.0000000000" y="132.8571428571" xlink:href="#block"/><use x="124.2857142857" y="132.8571428571" xlink:href="#block"/><use x="135.7142857143" y="132.8571428571" xlink:href="#block"/><use x="138.5714285714" y="132.8571428571" xlink:href="#block"/><use x="141.4285714286" y="132.8571428571" xlink:href="#block"/><use x="10.0000000000" y="135.7142857143" xlink:href="#block"/><use x="15.7142857143" y="135.7142857143" xlink:href="#block"/><use x="18.5714285714" y="135.7142857143" xlink:href="#block"/><use x="21.4285714286" y="135.7142857143" xlink:href="#block"/><use x="27.1428571429" y="135.7142857143" xlink:href="#block"/><use x="32.8571428571" y="135.7142857143" xlink:href="#block"/><use x="35.7142857143" y="135.7142857143" xlink:href="#block"/><use x="44.2857142857" y="135.7142857143" xlink:href="#block"/><use x="47.1428571429" y="135.7142857143" xlink:href="#block"/><use x="72.8571428571" y="135.7142857143" xlink:href="#block"/><use x="75.7142857143" y="135.7142857143" xlink:href="#block"/><use x="78.5714285714" y="135.7142857143" xlink:href="#block"/><use x="81.4285714286" y="135.7142857143" xlink:href="#block"/><use x="84.2857142857" y="135.7142857143" xlink:href="#block"/><use x="107.1428571429" y="135.7142857143" xlink:href="#block"/><use x="110.0000000000" y="135.7142857143" xlink:href="#block"/><use x="112.8571428571" y="135.7142857143" xlink:href="#block"/><use x="118.5714285714" y="135.7142857143" xlink:href="#block"/><use x="121.4285714286" y="135.7142857143" xlink:href="#block"/><use x="124.2857142857" y="135.7142857143" xlink:href="#block"/><use x="127.1428571429" y="135.7142857143" xlink:href="#block"/><use x="130.0000000000" y="135.7142857143" xlink:href="#block"/><use x="132.8571428571" y="135.7142857143" xlink:href="#block"/><use x="135.7142857143" y="135.7142857143" xlink:href="#block"/><use x="138.5714285714" y="135.7142857143" xlink:href="#block"/><use x="147.1428571429" y="135.7142857143" xlink:href="#block"/><use x="10.0000000000" y="138.5714285714" xlink:href="#block"/><use x="15.7142857143" y="138.5714285714" xlink:href="#block"/><use x="18.5714285714" y="138.5714285714" xlink:href="#block"/><use x="21.4285714286" y="138.5714285714" xlink:href="#block"/><use x="27.1428571429" y="138.5714285714" xlink:href="#block"/><use x="32.8571428571" y="138.5714285714" xlink:href="#block"/><use x="35.7142857143" y="138.5714285714" xlink:href="#block"/><use x="44.2857142857" y="138.5714285714" xlink:href="#block"/><use x="47.1428571429" y="138.5714285714" xlink:href="#block"/><use x="52.8571428571" y="138.5714285714" xlink:href="#block"/><use x="55.7142857143" y="138.5714285714" xlink:href="#block"/><use x="70.0000000000" y="138.5714285714" xlink:href="#block"/><use x="72.8571428571" y="138.5714285714" xlink:href="#block"/><use x="81.4285714286" y="138.5714285714" xlink:href="#block"/><use x="95.7142857143" y="138.5714285714" xlink:href="#block"/><use x="98.5714285714" y="138.5714285714" xlink:href="#block"/><use x="101.4285714286" y="138.5714285714" xlink:href="#block"/><use x="110.0000000000" y="138.5714285714" xlink:href="#block"/><use x="115.7142857143" y="138.5714285714" xlink:href="#block"/><use x="118.5714285714" y="138.5714285714" xlink:href="#block"/><use x="121.4285714286" y="138.5714285714" xlink:href="#block"/><use x="130.0000000000" y="138.5714285714" xlink:href="#block"/><use x="132.8571428571" y="138.5714285714" xlink:href="#block"/><use x="144.2857142857" y="138.5714285714" xlink:href="#block"/><use x="147.1428571429" y="138.5714285714" xlink:href="#block"/><use x="10.0000000000" y="141.4285714286" xlink:href="#block"/><use x="15.7142857143" y="141.4285714286" xlink:href="#block"/><use x="18.5714285714" y="141.4285714286" xlink:href="#block"/><use x="21.4285714286" y="141.4285714286" xlink:href="#block"/><use x="27.1428571429" y="141.4285714286" xlink:href="#block"/><use x="32.8571428571" y="141.4285714286" xlink:href="#block"/><use x="35.7142857143" y="141.4285714286" xlink:href="#block"/><use x="44.2857142857" y="141.4285714286" xlink:href="#block"/><use x="52.8571428571" y="141.4285714286" xlink:href="#block"/><use x="55.7142857143" y="141.4285714286" xlink:href="#block"/><use x="67.1428571429" y="141.4285714286" xlink:href="#block"/><use x="78.5714285714" y="141.4285714286" xlink:href="#block"/><use x="81.4285714286" y="141.4285714286" xlink:href="#block"/><use x="87.1428571429" y="141.4285714286" xlink:href="#block"/><use x="90.0000000000" y="141.4285714286" xlink:href="#block"/><use x="95.7142857143" y="141.4285714286" xlink:href="#block"/><use x="107.1428571429" y="141.4285714286" xlink:href="#block"/><use x="112.8571428571" y="141.4285714286" xlink:href="#block"/><use x="115.7142857143" y="141.4285714286" xlink:href="#block"/><use x="118.5714285714" y="141.4285714286" xlink:href="#block"/><use x="121.4285714286" y="141.4285714286" xlink:href="#block"/><use x="127.1428571429" y="141.4285714286" xlink:href="#block"/><use x="132.8571428571" y="141.4285714286" xlink:href="#block"/><use x="138.5714285714" y="141.4285714286" xlink:href="#block"/><use x="141.4285714286" y="141.4285714286" xlink:href="#block"/><use x="147.1428571429" y="141.4285714286" xlink:href="#block"/><use x="10.0000000000" y="144.2857142857" xlink:href="#block"/><use x="27.1428571429" y="144.2857142857" xlink:href="#block"/><use x="41.4285714286" y="144.2857142857" xlink:href="#block"/><use x="47.1428571429" y="144.2857142857" xlink:href="#block"/><use x="52.8571428571" y="144.2857142857" xlink:href="#block"/><use x="55.7142857143" y="144.2857142857" xlink:href="#block"/><use x="58.5714285714" y="144.2857142857" xlink:href="#block"/><use x="61.4285714286" y="144.2857142857" xlink:href="#block"/><use x="64.2857142857" y="144.2857142857" xlink:href="#block"/><use x="70.0000000000" y="144.2857142857" xlink:href="#block"/><use x="75.7142857143" y="144.2857142857" xlink:href="#block"/><use x="81.4285714286" y="144.2857142857" xlink:href="#block"/><use x="87.1428571429" y="144.2857142857" xlink:href="#block"/><use x="90.0000000000" y="144.2857142857" xlink:href="#block"/><use x="92.8571428571" y="144.2857142857" xlink:href="#block"/><use x="98.5714285714" y="144.2857142857" xlink:href="#block"/><use x="110.0000000000" y="144.2857142857" xlink:href="#block"/><use x="115.7142857143" y="144.2857142857" xlink:href="#block"/><use x="121.4285714286" y="144.2857142857" xlink:href="#block"/><use x="127.1428571429" y="144.2857142857" xlink:href="#block"/><use x="135.7142857143" y="144.2857142857" xlink:href="#block"/><use x="141.4285714286" y="144.2857142857" xlink:href="#block"/><use x="144.2857142857" y="144.2857142857" xlink:href="#block"/><use x="10.0000000000" y="147.1428571429" xlink:href="#block"/><use x="12.8571428571" y="147.1428571429" xlink:href="#block"/><use x="15.7142857143" y="147.1428571429" xlink:href="#block"/><use x="18.5714285714" y="147.1428571429" xlink:href="#block"/><use x="21.4285714286" y="147.1428571429" xlink:href="#block"/><use x="24.2857142857" y="147.1428571429" xlink:href="#block"/><use x="27.1428571429" y="147.1428571429" xlink:href="#block"/><use x="41.4285714286" y="147.1428571429" xlink:href="#block"/><use x="44.2857142857" y="147.1428571429" xlink:href="#block"/><use x="47.1428571429" y="147.1428571429" xlink:href="#block"/><use x="50.0000000000" y="147.1428571429" xlink:href="#block"/><use x="55.7142857143" y="147.1428571429" xlink:href="#block"/><use x="67.1428571429" y="147.1428571429" xlink:href="#block"/><use x="70.0000000000" y="147.1428571429" xlink:href="#block"/><use x="72.8571428571" y="147.1428571429" xlink:href="#block"/><use x="87.1428571429" y="147.1428571429" xlink:href="#block"/><use x="92.8571428571" y="147.1428571429" xlink:href="#block"/><use x="95.7142857143" y="147.1428571429" xlink:href="#block"/><use x="98.5714285714" y="147.1428571429" xlink:href="#block"/><use x="104.2857142857" y="147.1428571429" xlink:href="#block"/><use x="107.1428571429" y="147.1428571429" xlink:href="#block"/><use x="112.8571428571" y="147.1428571429" xlink:href="#block"/><use x="115.7142857143" y="147.1428571429" xlink:href="#block"/><use x="118.5714285714" y="147.1428571429" xlink:href="#block"/><use x="121.4285714286" y="147.1428571429" xlink:href="#block"/><use x="127.1428571429" y="147.1428571429" xlink:href="#block"/><use x="130.0000000000" y="147.1428571429" xlink:href="#block"/><use x="132.8571428571" y="147.1428571429" xlink:href="#block"/><use x="141.4285714286" y="147.1428571429" xlink:href="#block"/><use x="144.2857142857" y="147.1428571429" xlink:href="#block"/><use x="147.1428571429" y="147.1428571429" xlink:href="#block"/></svg>
