<?xml version="1.0"?>
<svg xmlns="http://www.w3.org/2000/svg" xmlns:xlink="http://www.w3.org/1999/xlink" version="1.1" width="160px" height="160px" viewBox="0 0 160 160"><defs><rect id="block" width="4.2424242424" height="4.2424242424" fill="#000000" fill-opacity="1"/></defs><rect x="0" y="0" width="160" height="160" fill="#ffffff" fill-opacity="1"/><use x="10.0000000000" y="10.0000000000" xlink:href="#block"/><use x="14.2424242424" y="10.0000000000" xlink:href="#block"/><use x="18.4848484848" y="10.0000000000" xlink:href="#block"/><use x="22.7272727273" y="10.0000000000" xlink:href="#block"/><use x="26.9696969697" y="10.0000000000" xlink:href="#block"/><use x="31.2121212121" y="10.0000000000" xlink:href="#block"/><use x="35.4545454545" y="10.0000000000" xlink:href="#block"/><use x="52.4242424242" y="10.0000000000" xlink:href="#block"/><use x="56.6666666667" y="10.0000000000" xlink:href="#block"/><use x="69.3939393939" y="10.0000000000" xlink:href="#block"/><use x="77.8787878788" y="10.0000000000" xlink:href="#block"/><use x="90.6060606061" y="10.0000000000" xlink:href="#block"/><use x="99.0909090909" y="10.0000000000" xlink:href="#block"/><use x="103.3333333333" y="10.0000000000" xlink:href="#block"/><use x="107.5757575758" y="10.0000000000" xlink:href="#block"/><use x="111.8181818182" y="10.0000000000" xlink:href="#block"/><use x="120.3030303030" y="10.0000000000" xlink:href="#block"/><use x="124.5454545455" y="10.0000000000" xlink:href="#block"/><use x="128.7878787879" y="10.0000000000" xlink:href="#block"/><use x="133.0303030303" y="10.0000000000" xlink:href="#block"/><use x="137.2727272727" y="10.0000000000" xlink:href="#block"/><use x="141.5151515152" y="10.0000000000" xlink:href="#block"/><use x="145.7575757576" y="10.0000000000" xlink:href="#block"/><use x="10.0000000000" y="14.2424242424" xlink:href="#block"/><use x="35.4545454545" y="14.2424242424" xlink:href="#block"/><use x="48.1818181818" y="14.2424242424" xlink:href="#block"/><use x="56.6666666667" y="14.2424242424" xlink:href="#block"/><use x="69.3939393939" y="14.2424242424" xlink:href="#block"/><use x="73.6363636364" y="14.2424242424" xlink:href="#block"/><use x="82.1212121212" y="14.2424242424" xlink:href="#block"/><use x="90.6060606061" y="14.2424242424" xlink:href="#block"/><use x="99.0909090909" y="14.2424242424" xlink:href="#block"/><use x="103.3333333333" y="14.2424242424" xlink:href="#block"/><use x="107.5757575758" y="14.2424242424" xlink:href="#block"/><use x="111.8181818182" y="14.2424242424" xlink:href="#block"/><use x="120.3030303030" y="14.2424242424" xlink:href="#block"/><use x="145.7575757576" y="14.2424242424" xlink:href="#block"/><use x="10.0000000000" y="18.4848484848" xlink:href="#block"/><use x="18.4848484848" y="18.4848484848" xlink:href="#block"/><use x="22.7272727273" y="18.4848484848" xlink:href="#block"/><use x="26.9696969697" y="18.4848484848" xlink:href="#block"/><use x="35.4545454545" y="18.4848484848" xlink:href="#block"/><use x="48.1818181818" y="18.4848484848" xlink:href="#block"/><use x="60.9090909091" y="18.4848484848" xlink:href="#block"/><use x="65.1515151515" y="18.4848484848" xlink:href="#block"/><use x="69.3939393939" y="18.4848484848" xlink:href="#block"/><use x="77.8787878788" y="18.4848484848" xlink:href="#block"/><use x="82.1212121212" y="18.4848484848" xlink:href="#block"/><use x="90.6060606061" y="18.4848484848" xlink:href="#block"/><use x="103.3333333333" y="18.4848484848" xlink:href="#block"/><use x="107.5757575758" y="18.4848484848" xlink:href="#block"/><use x="111.8181818182" y="18.4848484848" xlink:href="#block"/><use x="120.3030303030" y="18.4848484848" xlink:href="#block"/><use x="128.7878787879" y="18.4848484848" xlink:href="#block"/><use x="133.0303030303" y="18.4848484848" xlink:href="#block"/><use x="137.2727272727" y="18.4848484848" xlink:href="#block"/><use x="145.7575757576" y="18.4848484848" xlink:href="#block"/><use x="10.0000000000" y="22.7272727273" xlink:href="#block"/><use x="18.4848484848" y="22.7272727273" xlink:href="#block"/><use x="22.7272727273" y="22.7272727273" xlink:href="#block"/><use x="26.9696969697" y="22.7272727273" xlink:href="#block"/><use x="35.4545454545" y="22.7272727273" xlink:href="#block"/><use x="52.4242424242" y="22.7272727273" xlink:href="#block"/><use x="56.6666666667" y="22.7272727273" xlink:href="#block"/><use x="60.9090909091" y="22.7272727273" xlink:href="#block"/><use x="65.1515151515" y="22.7272727273" xlink:href="#block"/><use x="73.6363636364" y="22.7272727273" xlink:href="#block"/><use x="82.1212121212" y="22.7272727273" xlink:href="#block"/><use x="86.3636363636" y="22.7272727273" xlink:href="#block"/><use x="90.6060606061" y="22.7272727273" xlink:href="#block"/><use x="111.8181818182" y="22.7272727273" xlink:href="#block"/><use x="120.3030303030" y="22.7272727273" xlink:href="#block"/><use x="128.7878787879" y="22.7272727273" xlink:href="#block"/><use x="133.0303030303" y="22.7272727273" xlink:href="#block"/><use x="137.2727272727" y="22.7272727273" xlink:href="#block"/><use x="145.7575757576" y="22.7272727273" xlink:href="#block"/><use x="10.0000000000" y="26.9696969697" xlink:href="#block"/><use x="18.4848484848" y="26.9696969697" xlink:href="#block"/><use x="22.7272727273" y="26.9696969697" xlink:href="#block"/><use x="26.9696969697" y="26.9696969697" xlink:href="#block"/><use x="35.4545454545" y="26.9696969697" xlink:href="#block"/><use x="43.9393939394" y="26.9696969697" xlink:href="#block"/><use x="48.1818181818" y="26.9696969697" xlink:href="#block"/><use x="56.6666666667" y="26.9696969697" xlink:href="#block"/><use x="60.9090909091" y="26.9696969697" xlink:href="#block"/><use x="69.3939393939" y="26.9696969697" xlink:href="#block"/><use x="73.6363636364" y="26.9696969697" xlink:href="#block"/><use x="77.8787878788" y="26.9696969697" xlink:href="#block"/><use x="94.8484848485" y="26.9696969697" xlink:href="#block"/><use x="107.5757575758" y="26.9696969697" xlink:href="#block"/><use x="111.8181818182" y="26.9696969697" xlink:href="#block"/><use x="120.3030303030" y="26.9696969697" xlink:href="#block"/><use x="128.7878787879" y="26.9696969697" xlink:href="#block"/><use x="133.0303030303" y="26.9696969697" xlink:href="#block"/><use x="137.2727272727" y="26.9696969697" xlink:href="#block"/><use x="145.7575757576" y="26.9696969697" xlink:href="#block"/><use x="10.0000000000" y="31.2121212121" xlink:href="#block"/><use x="35.4545454545" y="31.2121212121" xlink:href="#block"/><use x="48.1818181818" y="31.2121212121" xlink:href="#block"/><use x="52.4242424242" y="31.2121212121" xlink:href="#block"/><use x="56.6666666667" y="31.2121212121" xlink:href="#block"/><use x="60.9090909091" y="31.2121212121" xlink:href="#block"/><use x="65.1515151515" y="31.2121212121" xlink:href="#block"/><use x="77.8787878788" y="31.2121212121" xlink:href="#block"/><use x="86.3636363636" y="31.2121212121" xlink:href="#block"/><use x="90.6060606061" y="31.2121212121" xlink:href="#block"/><use x="99.0909090909" y="31.2121212121" xlink:href="#block"/><use x="107.5757575758" y="31.2121212121" xlink:href="#block"/><use x="120.3030303030" y="31.2121212121" xlink:href="#block"/><use x="145.7575757576" y="31.2121212121" xlink:href="#block"/><use x="10.0000000000" y="35.4545454545" xlink:href="#block"/><use x="14.2424242424" y="35.4545454545" xlink:href="#block"/><use x="18.4848484848" y="35.4545454545" xlink:href="#block"/><use x="22.7272727273" y="35.4545454545" xlink:href="#block"/><use x="26.9696969697" y="35.4545454545" xlink:href="#block"/><use x="31.2121212121" y="35.4545454545" xlink:href="#block"/><use x="35.4545454545" y="35.4545454545" xlink:href="#block"/><use x="43.9393939394" y="35.4545454545" xlink:href="#block"/><use x="52.4242424242" y="35.4545454545" xlink:href="#block"/><use x="60.9090909091" y="35.4545454545" xlink:href="#block"/><use x="69.3939393939" y="35.4545454545" xlink:href="#block"/><use x="77.8787878788" y="35.4545454545" xlink:href="#block"/><use x="86.3636363636" y="35.4545454545" xlink:href="#block"/><use x="94.8484848485" y="35.4545454545" xlink:href="#block"/><use x="103.3333333333" y="35.4545454545" xlink:href="#block"/><use x="111.8181818182" y="35.4545454545" xlink:href="#block"/><use x="120.3030303030" y="35.4545454545" xlink:href="#block"/><use x="124.5454545455" y="35.4545454545" xlink:href="#block"/><use x="128.7878787879" y="35.4545454545" xlink:href="#block"/><use x="133.0303030303" y="35.4545454545" xlink:href="#block"/><use x="137.2727272727" y="35.4545454545" xlink:href="#block"/><use x="141.5151515152" y="35.4545454545" xlink:href="#block"/><use x="145.7575757576" y="35.4545454545" xlink:href="#block"/><use x="43.9393939394" y="39.6969696970" xlink:href="#block"/><use x="48.1818181818" y="39.6969696970" xlink:href="#block"/><use x="56.6666666667" y="39.6969696970" xlink:href="#block"/><use x="60.9090909091" y="39.6969696970" xlink:href="#block"/><use x="65.1515151515" y="39.6969696970" xlink:href="#block"/><use x="69.3939393939" y="39.6969696970" xlink:href="#block"/><use x="90.6060606061" y="39.6969696970" xlink:href="#block"/><use x="99.0909090909" y="39.6969696970" xlink:href="#block"/><use x="111.8181818182" y="39.6969696970" xlink:href="#block"/><use x="18.4848484848" y="43.9393939394" xlink:href="#block"/><use x="22.7272727273" y="43.9393939394" xlink:href="#block"/><use x="35.4545454545" y="43.9393939394" xlink:href="#block"/><use x="39.6969696970" y="43.9393939394" xlink:href="#block"/><use x="43.9393939394" y="43.9393939394" xlink:href="#block"/><use x="52.4242424242" y="43.9393939394" xlink:href="#block"/><use x="56.6666666667" y="43.9393939394" xlink:href="#block"/><use x="65.1515151515" y="43.9393939394" xlink:href="#block"/><use x="73.6363636364" y="43.9393939394" xlink:href="#block"/><use x="90.6060606061" y="43.9393939394" xlink:href="#block"/><use x="94.8484848485" y="43.9393939394" xlink:href="#block"/><use x="103.3333333333" y="43.9393939394" xlink:href="#block"/><use x="107.5757575758" y="43.9393939394" xlink:href="#block"/><use x="116.0606060606" y="43.9393939394" xlink:href="#block"/><use x="120.3030303030" y="43.9393939394" xlink:href="#block"/><use x="128.7878787879" y="43.9393939394" xlink:href="#block"/><use x="22.7272727273" y="48.1818181818" xlink:href="#block"/><use x="39.6969696970" y="48.1818181818" xlink:href="#block"/><use x="52.4242424242" y="48.1818181818" xlink:href="#block"/><use x="56.6666666667" y="48.1818181818" xlink:href="#block"/><use x="60.9090909091" y="48.1818181818" xlink:href="#block"/><use x="82.1212121212" y="48.1818181818" xlink:href="#block"/><use x="86.3636363636" y="48.1818181818" xlink:href="#block"/><use x="94.8484848485" y="48.1818181818" xlink:href="#block"/><use x="99.0909090909" y="48.1818181818" xlink:href="#block"/><use x="133.0303030303" y="48.1818181818" xlink:href="#block"/><use x="137.2727272727" y="48.1818181818" xlink:href="#block"/><use x="141.5151515152" y="48.1818181818" xlink:href="#block"/><use x="145.7575757576" y="48.1818181818" xlink:href="#block"/><use x="14.2424242424" y="52.4242424242" xlink:href="#block"/><use x="31.2121212121" y="52.4242424242" xlink:href="#block"/><use x="35.4545454545" y="52.4242424242" xlink:href="#block"/><use x="39.6969696970" y="52.4242424242" xlink:href="#block"/><use x="48.1818181818" y="52.4242424242" xlink:href="#block"/><use x="52.4242424242" y="52.4242424242" xlink:href="#block"/><use x="56.6666666667" y="52.4242424242" xlink:href="#block"/><use x="60.9090909091" y="52.4242424242" xlink:href="#block"/><use x="73.6363636364" y="52.4242424242" xlink:href="#block"/><use x="77.8787878788" y="52.4242424242" xlink:href="#block"/><use x="82.1212121212" y="52.4242424242" xlink:href="#block"/><use x="90.6060606061" y="52.4242424242" xlink:href="#block"/><use x="107.5757575758" y="52.4242424242" xlink:href="#block"/><use x="111.8181818182" y="52.4242424242" xlink:href="#block"/><use x="116.0606060606" y="52.4242424242" xlink:href="#block"/><use x="120.3030303030" y="52.4242424242" xlink:href="#block"/><use x="124.5454545455" y="52.4242424242" xlink:href="#block"/><use x="128.7878787879" y="52.4242424242" xlink:href="#block"/><use x="133.0303030303" y="52.4242424242" xlink:href="#block"/><use x="137.2727272727" y="52.4242424242" xlink:href="#block"/><use x="141.5151515152" y="52.4242424242" xlink:href="#block"/><use x="10.0000000000" y="56.6666666667" xlink:href="#block"/><use x="18.4848484848" y="56.6666666667" xlink:href="#block"/><use x="26.9696969697" y="56.6666666667" xlink:href="#block"/><use x="48.1818181818" y="56.6666666667" xlink:href="#block"/><use x="52.4242424242" y="56.6666666667" xlink:href="#block"/><use x="60.9090909091" y="56.6666666667" xlink:href="#block"/><use x="65.1515151515" y="56.6666666667" xlink:href="#block"/><use x="73.6363636364" y="56.6666666667" xlink:href="#block"/><use x="90.6060606061" y="56.6666666667" xlink:href="#block"/><use x="107.5757575758" y="56.6666666667" xlink:href="#block"/><use x="111.8181818182" y="56.6666666667" xlink:href="#block"/><use x="116.0606060606" y="56.6666666667" xlink:href="#block"/><use x="120.3030303030" y="56.6666666667" xlink:href="#block"/><use x="124.5454545455" y="56.6666666667" xlink:href="#block"/><use x="128.7878787879" y="56.6666666667" xlink:href="#block"/><use x="133.0303030303" y="56.6666666667" xlink:href="#block"/><use x="137.2727272727" y="56.6666666667" xlink:href="#block"/><use x="141.5151515152" y="56.6666666667" xlink:href="#block"/><use x="145.7575757576" y="56.6666666667" xlink:href="#block"/><use x="10.0000000000" y="60.9090909091" xlink:href="#block"/><use x="18.4848484848" y="60.9090909091" xlink:href="#block"/><use x="35.4545454545" y="60.9090909091" xlink:href="#block"/><use x="48.1818181818" y="60.9090909091" xlink:href="#block"/><use x="52.4242424242" y="60.9090909091" xlink:href="#block"/><use x="56.6666666667" y="60.9090909091" xlink:href="#block"/><use x="73.6363636364" y="60.9090909091" xlink:href="#block"/><use x="77.8787878788" y="60.9090909091" xlink:href="#block"/><use x="82.1212121212" y="60.9090909091" xlink:href="#block"/><use x="86.3636363636" y="60.9090909091" xlink:href="#block"/><use x="99.0909090909" y="60.9090909091" xlink:href="#block"/><use x="116.0606060606" y="60.9090909091" xlink:href="#block"/><use x="120.3030303030" y="60.9090909091" xlink:href="#block"/><use x="137.2727272727" y="60.9090909091" xlink:href="#block"/><use x="10.0000000000" y="65.1515151515" xlink:href="#block"/><use x="22.7272727273" y="65.1515151515" xlink:href="#block"/><use x="39.6969696970" y="65.1515151515" xlink:href="#block"/><use x="43.9393939394" y="65.1515151515" xlink:href="#block"/><use x="48.1818181818" y="65.1515151515" xlink:href="#block"/><use x="52.4242424242" y="65.1515151515" xlink:href="#block"/><use x="69.3939393939" y="65.1515151515" xlink:href="#block"/><use x="73.6363636364" y="65.1515151515" xlink:href="#block"/><use x="82.1212121212" y="65.1515151515" xlink:href="#block"/><use x="86.3636363636" y="65.1515151515" xlink:href="#block"/><use x="90.6060606061" y="65.1515151515" xlink:href="#block"/><use x="94.8484848485" y="65.1515151515" xlink:href="#block"/><use x="103.3333333333" y="65.1515151515" xlink:href="#block"/><use x="111.8181818182" y="65.1515151515" xlink:href="#block"/><use x="116.0606060606" y="65.1515151515" xlink:href="#block"/><use x="120.3030303030" y="65.1515151515" xlink:href="#block"/><use x="133.0303030303" y="65.1515151515" xlink:href="#block"/><use x="145.7575757576" y="65.1515151515" xlink:href="#block"/><use x="14.2424242424" y="69.3939393939" xlink:href="#block"/><use x="18.4848484848" y="69.3939393939" xlink:href="#block"/><use x="22.7272727273" y="69.3939393939" xlink:href="#block"/><use x="26.9696969697" y="69.3939393939" xlink:href="#block"/><use x="31.2121212121" y="69.3939393939" xlink:href="#block"/><use x="35.4545454545" y="69.3939393939" xlink:href="#block"/><use x="39.6969696970" y="69.3939393939" xlink:href="#block"/><use x="43.9393939394" y="69.3939393939" xlink:href="#block"/><use x="65.1515151515" y="69.3939393939" xlink:href="#block"/><use x="69.3939393939" y="69.3939393939" xlink:href="#block"/><use x="73.6363636364" y="69.3939393939" xlink:href="#block"/><use x="90.6060606061" y="69.3939393939" xlink:href="#block"/><use x="94.8484848485" y="69.3939393939" xlink:href="#block"/><use x="99.0909090909" y="69.3939393939" xlink:href="#block"/><use x="103.3333333333" y="69.3939393939" xlink:href="#block"/><use x="107.5757575758" y="69.3939393939" xlink:href="#block"/><use x="124.5454545455" y="69.3939393939" xlink:href="#block"/><use x="128.7878787879" y="69.3939393939" xlink:href="#block"/><use x="133.0303030303" y="69.3939393939" xlink:href="#block"/><use x="14.2424242424" y="73.6363636364" xlink:href="#block"/><use x="26.9696969697" y="73.6363636364" xlink:href="#block"/><use x="31.2121212121" y="73.6363636364" xlink:href="#block"/><use x="39.6969696970" y="73.6363636364" xlink:href="#block"/><use x="60.9090909091" y="73.6363636364" xlink:href="#block"/><use x="65.1515151515" y="73.6363636364" xlink:href="#block"/><use x="69.3939393939" y="73.6363636364" xlink:href="#block"/><use x="73.6363636364" y="73.6363636364" xlink:href="#block"/><use x="82.1212121212" y="73.6363636364" xlink:href="#block"/><use x="86.3636363636" y="73.6363636364" xlink:href="#block"/><use x="94.8484848485" y="73.6363636364" xlink:href="#block"/><use x="103.3333333333" y="73.6363636364" xlink:href="#block"/><use x="107.5757575758" y="73.6363636364" xlink:href="#block"/><use x="111.8181818182" y="73.6363636364" xlink:href="#block"/><use x="120.3030303030" y="73.6363636364" xlink:href="#block"/><use x="124.5454545455" y="73.6363636364" xlink:href="#block"/><use x="137.2727272727" y="73.6363636364" xlink:href="#block"/><use x="145.7575757576" y="73.6363636364" xlink:href="#block"/><use x="14.2424242424" y="77.8787878788" xlink:href="#block"/><use x="22.7272727273" y="77.8787878788" xlink:href="#block"/><use x="31.2121212121" y="77.8787878788" xlink:href="#block"/><use x="35.4545454545" y="77.8787878788" xlink:href="#block"/><use x="39.6969696970" y="77.8787878788" xlink:href="#block"/><use x="43.9393939394" y="77.8787878788" xlink:href="#block"/><use x="52.4242424242" y="77.8787878788" xlink:href="#block"/><use x="56.6666666667" y="77.8787878788" xlink:href="#block"/><use x="60.9090909091" y="77.8787878788" xlink:href="#block"/><use x="77.8787878788" y="77.8787878788" xlink:href="#block"/><use x="99.0909090909" y="77.8787878788" xlink:href="#block"/><use x="107.5757575758" y="77.8787878788" xlink:href="#block"/><use x="116.0606060606" y="77.8787878788" xlink:href="#block"/><use x="124.5454545455" y="77.8787878788" xlink:href="#block"/><use x="128.7878787879" y="77.8787878788" xlink:href="#block"/><use x="14.2424242424" y="82.1212121212" xlink:href="#block"/><use x="22.7272727273" y="82.1212121212" xlink:href="#block"/><use x="39.6969696970" y="82.1212121212" xlink:href="#block"/><use x="48.1818181818" y="82.1212121212" xlink:href="#block"/><use x="52.4242424242" y="82.1212121212" xlink:href="#block"/><use x="60.9090909091" y="82.1212121212" xlink:href="#block"/><use x="65.1515151515" y="82.1212121212" xlink:href="#block"/><use x="73.6363636364" y="82.1212121212" xlink:href="#block"/><use x="77.8787878788" y="82.1212121212" xlink:href="#block"/><use x="103.3333333333" y="82.1212121212" xlink:href="#block"/><use x="116.0606060606" y="82.1212121212" xlink:href="#block"/><use x="128.7878787879" y="82.1212121212" xlink:href="#block"/><use x="141.5151515152" y="82.1212121212" xlink:href="#block"/><use x="14.2424242424" y="86.3636363636" xlink:href="#block"/><use x="26.9696969697" y="86.3636363636" xlink:href="#block"/><use x="35.4545454545" y="86.3636363636" xlink:href="#block"/><use x="39.6969696970" y="86.3636363636" xlink:href="#block"/><use x="43.9393939394" y="86.3636363636" xlink:href="#block"/><use x="56.6666666667" y="86.3636363636" xlink:href="#block"/><use x="77.8787878788" y="86.3636363636" xlink:href="#block"/><use x="82.1212121212" y="86.3636363636" xlink:href="#block"/><use x="94.8484848485" y="86.3636363636" xlink:href="#block"/><use x="103.3333333333" y="86.3636363636" xlink:href="#block"/><use x="116.0606060606" y="86.3636363636" xlink:href="#block"/><use x="120.3030303030" y="86.3636363636" xlink:href="#block"/><use x="124.5454545455" y="86.3636363636" xlink:href="#block"/><use x="128.7878787879" y="86.3636363636" xlink:href="#block"/><use x="133.0303030303" y="86.3636363636" xlink:href="#block"/><use x="137.2727272727" y="86.3636363636" xlink:href="#block"/><use x="141.5151515152" y="86.3636363636" xlink:href="#block"/><use x="145.7575757576" y="86.3636363636" xlink:href="#block"/><use x="10.0000000000" y="90.6060606061" xlink:href="#block"/><use x="14.2424242424" y="90.6060606061" xlink:href="#block"/><use x="22.7272727273" y="90.6060606061" xlink:href="#block"/><use x="26.9696969697" y="90.6060606061" xlink:href="#block"/><use x="31.2121212121" y="90.6060606061" xlink:href="#block"/><use x="39.6969696970" y="90.6060606061" xlink:href="#block"/><use x="43.9393939394" y="90.6060606061" xlink:href="#block"/><use x="56.6666666667" y="90.6060606061" xlink:href="#block"/><use x="73.6363636364" y="90.6060606061" xlink:href="#block"/><use x="77.8787878788" y="90.6060606061" xlink:href="#block"/><use x="94.8484848485" y="90.6060606061" xlink:href="#block"/><use x="111.8181818182" y="90.6060606061" xlink:href="#block"/><use x="124.5454545455" y="90.6060606061" xlink:href="#block"/><use x="10.0000000000" y="94.8484848485" xlink:href="#block"/><use x="18.4848484848" y="94.8484848485" xlink:href="#block"/><use x="22.7272727273" y="94.8484848485" xlink:href="#block"/><use x="26.9696969697" y="94.8484848485" xlink:href="#block"/><use x="35.4545454545" y="94.8484848485" xlink:href="#block"/><use x="39.6969696970" y="94.8484848485" xlink:href="#block"/><use x="52.4242424242" y="94.8484848485" xlink:href="#block"/><use x="56.6666666667" y="94.8484848485" xlink:href="#block"/><use x="60.9090909091" y="94.8484848485" xlink:href="#block"/><use x="69.3939393939" y="94.8484848485" xlink:href="#block"/><use x="73.6363636364" y="94.8484848485" xlink:href="#block"/><use x="77.8787878788" y="94.8484848485" xlink:href="#block"/><use x="86.3636363636" y="94.8484848485" xlink:href="#block"/><use x="111.8181818182" y="94.8484848485" xlink:href="#block"/><use x="120.3030303030" y="94.8484848485" xlink:href="#block"/><use x="133.0303030303" y="94.8484848485" xlink:href="#block"/><use x="137.2727272727" y="94.8484848485" xlink:href="#block"/><use x="145.7575757576" y="94.8484848485" xlink:href="#block"/><use x="10.0000000000" y="99.0909090909" xlink:href="#block"/><use x="18.4848484848" y="99.0909090909" xlink:href="#block"/><use x="31.2121212121" y="99.0909090909" xlink:href="#block"/><use x="39.6969696970" y="99.0909090909" xlink:href="#block"/><use x="43.9393939394" y="99.0909090909" xlink:href="#block"/><use x="56.6666666667" y="99.0909090909" xlink:href="#block"/><use x="60.9090909091" y="99.0909090909" xlink:href="#block"/><use x="65.1515151515" y="99.0909090909" xlink:href="#block"/><use x="82.1212121212" y="99.0909090909" xlink:href="#block"/><use x="94.8484848485" y="99.0909090909" xlink:href="#block"/><use x="99.0909090909" y="99.0909090909" xlink:href="#block"/><use x="103.3333333333" y="99.0909090909" xlink:href="#block"/><use x="111.8181818182" y="99.0909090909" xlink:href="#block"/><use x="128.7878787879" y="99.0909090909" xlink:href="#block"/><use x="133.0303030303" y="99.0909090909" xlink:href="#block"/><use x="137.2727272727" y="99.0909090909" xlink:href="#block"/><use x="18.4848484848" y="103.3333333333" xlink:href="#block"/><use x="26.9696969697" y="103.3333333333" xlink:href="#block"/><use x="31.2121212121" y="103.3333333333" xlink:href="#block"/><use x="35.4545454545" y="103.3333333333" xlink:href="#block"/><use x="43.9393939394" y="103.3333333333" xlink:href="#block"/><use x="48.1818181818" y="103.3333333333" xlink:href="#block"/><use x="52.4242424242" y="103.3333333333" xlink:href="#block"/><use x="56.6666666667" y="103.3333333333" xlink:href="#block"/><use x="65.1515151515" y="103.3333333333" xlink:href="#block"/><use x="73.6363636364" y="103.3333333333" xlink:href="#block"/><use x="77.8787878788" y="103.3333333333" xlink:href="#block"/><use x="82.1212121212" y="103.3333333333" xlink:href="#block"/><use x="86.3636363636" y="103.3333333333" xlink:href="#block"/><use x="107.5757575758" y="103.3333333333" xlink:href="#block"/><use x="111.8181818182" y="103.3333333333" xlink:href="#block"/><use x="116.0606060606" y="103.3333333333" xlink:href="#block"/><use x="120.3030303030" y="103.3333333333" xlink:href="#block"/><use x="128.7878787879" y="103.3333333333" xlink:href="#block"/><use x="137.2727272727" y="103.3333333333" xlink:href="#block"/><use x="141.5151515152" y="103.3333333333" xlink:href="#block"/><use x="14.2424242424" y="107.5757575758" xlink:href="#block"/><use x="18.4848484848" y="107.5757575758" xlink:href="#block"/><use x="22.7272727273" y="107.5757575758" xlink:href="#block"/><use x="26.9696969697" y="107.5757575758" xlink:href="#block"/><use x="31.2121212121" y="107.5757575758" xlink:href="#block"/><use x="39.6969696970" y="107.5757575758" xlink:href="#block"/><use x="60.9090909091" y="107.5757575758" xlink:href="#block"/><use x="65.1515151515" y="107.5757575758" xlink:href="#block"/><use x="73.6363636364" y="107.5757575758" xlink:href="#block"/><use x="77.8787878788" y="107.5757575758" xlink:href="#block"/><use x="82.1212121212" y="107.5757575758" xlink:href="#block"/><use x="94.8484848485" y="107.5757575758" xlink:href="#block"/><use x="103.3333333333" y="107.5757575758" xlink:href="#block"/><use x="120.3030303030" y="107.5757575758" xlink:href="#block"/><use x="128.7878787879" y="107.5757575758" xlink:href="#block"/><use x="133.0303030303" y="107.5757575758" xlink:href="#block"/><use x="141.5151515152" y="107.5757575758" xlink:href="#block"/><use x="145.7575757576" y="107.5757575758" xlink:href="#block"/><use x="10.0000000000" y="111.8181818182" xlink:href="#block"/><use x="22.7272727273" y="111.8181818182" xlink:href="#block"/><use x="31.2121212121" y="111.8181818182" xlink:href="#block"/><use x="35.4545454545" y="111.8181818182" xlink:href="#block"/><use x="39.6969696970" y="111.8181818182" xlink:href="#block"/><use x="43.9393939394" y="111.8181818182" xlink:href="#block"/><use x="48.1818181818" y="111.8181818182" xlink:href="#block"/><use x="65.1515151515" y="111.8181818182" xlink:href="#block"/><use x="73.6363636364" y="111.8181818182" xlink:href="#block"/><use x="82.1212121212" y="111.8181818182" xlink:href="#block"/><use x="86.3636363636" y="111.8181818182" xlink:href="#block"/><use x="99.0909090909" y="111.8181818182" xlink:href="#block"/><use x="111.8181818182" y="111.8181818182" xlink:href="#block"/><use x="116.0606060606" y="111.8181818182" xlink:href="#block"/><use x="120.3030303030" y="111.8181818182" xlink:href="#block"/><use x="124.5454545455" y="111.8181818182" xlink:href="#block"/><use x="128.7878787879" y="111.8181818182" xlink:href="#block"/><use x="137.2727272727" y="111.8181818182" xlink:href="#block"/><use x="141.5151515152" y="111.8181818182" xlink:href="#block"/><use x="43.9393939394" y="116.0606060606" xlink:href="#block"/><use x="52.4242424242" y="116.0606060606" xlink:href="#block"/><use x="77.8787878788" y="116.0606060606" xlink:href="#block"/><use x="82.1212121212" y="116.0606060606" xlink:href="#block"/><use x="94.8484848485" y="116.0606060606" xlink:href="#block"/><use x="99.0909090909" y="116.0606060606" xlink:href="#block"/><use x="111.8181818182" y="116.0606060606" xlink:href="#block"/><use x="128.7878787879" y="116.0606060606" xlink:href="#block"/><use x="141.5151515152" y="116.0606060606" xlink:href="#block"/><use x="10.0000000000" y="120.3030303030" xlink:href="#block"/><use x="14.2424242424" y="120.3030303030" xlink:href="#block"/><use x="18.4848484848" y="120.3030303030" xlink:href="#block"/><use x="22.7272727273" y="120.3030303030" xlink:href="#block"/><use x="26.9696969697" y="120.3030303030" xlink:href="#block"/><use x="31.2121212121" y="120.3030303030" xlink:href="#block"/><use x="35.4545454545" y="120.3030303030" xlink:href="#block"/><use x="43.9393939394" y="120.3030303030" xlink:href="#block"/><use x="48.1818181818" y="120.3030303030" xlink:href="#block"/><use x="52.4242424242" y="120.3030303030" xlink:href="#block"/><use x="69.3939393939" y="120.3030303030" xlink:href="#block"/><use x="73.6363636364" y="120.3030303030" xlink:href="#block"/><use x="77.8787878788" y="120.3030303030" xlink:href="#block"/><use x="90.6060606061" y="120.3030303030" xlink:href="#block"/><use x="94.8484848485" y="120.3030303030" xlink:href="#block"/><use x="99.0909090909" y="120.3030303030" xlink:href="#block"/><use x="107.5757575758" y="120.3030303030" xlink:href="#block"/><use x="111.8181818182" y="120.3030303030" xlink:href="#block"/><use x="120.3030303030" y="120.3030303030" xlink:href="#block"/><use x="128.7878787879" y="120.3030303030" xlink:href="#block"/><use x="137.2727272727" y="120.3030303030" xlink:href="#block"/><use x="145.7575757576" y="120.3030303030" xlink:href="#block"/><use x="10.0000000000" y="124.5454545455" xlink:href="#block"/><use x="35.4545454545" y="124.5454545455" xlink:href="#block"/><use x="48.1818181818" y="124.5454545455" xlink:href="#block"/><use x="52.4242424242" y="124.5454545455" xlink:href="#block"/><use x="56.6666666667" y="124.5454545455" xlink:href="#block"/><use x="65.1515151515" y="124.5454545455" xlink:href="#block"/><use x="77.8787878788" y="124.5454545455" xlink:href="#block"/><use x="107.5757575758" y="124.5454545455" xlink:href="#block"/><use x="111.8181818182" y="124.5454545455" xlink:href="#block"/><use x="128.7878787879" y="124.5454545455" xlink:href="#block"/><use x="133.0303030303" y="124.5454545455" xlink:href="#block"/><use x="145.7575757576" y="124.5454545455" xlink:href="#block"/><use x="10.0000000000" y="128.7878787879" xlink:href="#block"/><use x="18.4848484848" y="128.7878787879" xlink:href="#block"/><use x="22.7272727273" y="128.7878787879" xlink:href="#block"/><use x="26.9696969697" y="128.7878787879" xlink:href="#block"/><use x="35.4545454545" y="128.7878787879" xlink:href="#block"/><use x="52.4242424242" y="128.7878787879" xlink:href="#block"/><use x="65.1515151515" y="128.7878787879" xlink:href="#block"/><use x="73.6363636364" y="128.7878787879" xlink:href="#block"/><use x="82.1212121212" y="128.7878787879" xlink:href="#block"/><use x="86.3636363636" y="128.7878787879" xlink:href="#block"/><use x="103.3333333333" y="128.7878787879" xlink:href="#block"/><use x="111.8181818182" y="128.7878787879" xlink:href="#block"/><use x="116.0606060606" y="128.7878787879" xlink:href="#block"/><use x="120.3030303030" y="128.7878787879" xlink:href="#block"/><use x="124.5454545455" y="128.7878787879" xlink:href="#block"/><use x="128.7878787879" y="128.7878787879" xlink:href="#block"/><use x="137.2727272727" y="128.7878787879" xlink:href="#block"/><use x="145.7575757576" y="128.7878787879" xlink:href="#block"/><use x="10.0000000000" y="133.0303030303" xlink:href="#block"/><use x="18.4848484848" y="133.0303030303" xlink:href="#block"/><use x="22.7272727273" y="133.0303030303" xlink:href="#block"/><use x="26.9696969697" y="133.0303030303" xlink:href="#block"/><use x="35.4545454545" y="133.0303030303" xlink:href="#block"/><use x="43.9393939394" y="133.0303030303" xlink:href="#block"/><use x="52.4242424242" y="133.0303030303" xlink:href="#block"/><use x="56.6666666667" y="133.0303030303" xlink:href="#block"/><use x="77.8787878788" y="133.0303030303" xlink:href="#block"/><use x="86.3636363636" y="133.0303030303" xlink:href="#block"/><use x="94.8484848485" y="133.0303030303" xlink:href="#block"/><use x="99.0909090909" y="133.0303030303" xlink:href="#block"/><use x="103.3333333333" y="133.0303030303" xlink:href="#block"/><use x="111.8181818182" y="133.0303030303" xlink:href="#block"/><use x="128.7878787879" y="133.0303030303" xlink:href="#block"/><use x="133.0303030303" y="133.0303030303" xlink:href="#block"/><use x="137.2727272727" y="133.0303030303" xlink:href="#block"/><use x="10.0000000000" y="137.2727272727" xlink:href="#block"/><use x="18.4848484848" y="137.2727272727" xlink:href="#block"/><use x="22.7272727273" y="137.2727272727" xlink:href="#block"/><use x="26.9696969697" y="137.2727272727" xlink:href="#block"/><use x="35.4545454545" y="137.2727272727" xlink:href="#block"/><use x="43.9393939394" y="137.2727272727" xlink:href="#block"/><use x="52.4242424242" y="137.2727272727" xlink:href="#block"/><use x="56.6666666667" y="137.2727272727" xlink:href="#block"/><use x="65.1515151515" y="137.2727272727" xlink:href="#block"/><use x="73.6363636364" y="137.2727272727" xlink:href="#block"/><use x="82.1212121212" y="137.2727272727" xlink:href="#block"/><use x="86.3636363636" y="137.2727272727" xlink:href="#block"/><use x="90.6060606061" y="137.2727272727" xlink:href="#block"/><use x="103.3333333333" y="137.2727272727" xlink:href="#block"/><use x="107.5757575758" y="137.2727272727" xlink:href="#block"/><use x="111.8181818182" y="137.2727272727" xlink:href="#block"/><use x="124.5454545455" y="137.2727272727" xlink:href="#block"/><use x="128.7878787879" y="137.2727272727" xlink:href="#block"/><use x="10.0000000000" y="141.5151515152" xlink:href="#block"/><use x="35.4545454545" y="141.5151515152" xlink:href="#block"/><use x="48.1818181818" y="141.5151515152" xlink:href="#block"/><use x="56.6666666667" y="141.5151515152" xlink:href="#block"/><use x="60.9090909091" y="141.5151515152" xlink:href="#block"/><use x="73.6363636364" y="141.5151515152" xlink:href="#block"/><use x="94.8484848485" y="141.5151515152" xlink:href="#block"/><use x="99.0909090909" y="141.5151515152" xlink:href="#block"/><use x="103.3333333333" y="141.5151515152" xlink:href="#block"/><use x="116.0606060606" y="141.5151515152" xlink:href="#block"/><use x="120.3030303030" y="141.5151515152" xlink:href="#block"/><use x="128.7878787879" y="141.5151515152" xlink:href="#block"/><use x="137.2727272727" y="141.5151515152" xlink:href="#block"/><use x="141.5151515152" y="141.5151515152" xlink:href="#block"/><use x="10.0000000000" y="145.7575757576" xlink:href="#block"/><use x="14.2424242424" y="145.7575757576" xlink:href="#block"/><use x="18.4848484848" y="145.7575757576" xlink:href="#block"/><use x="22.7272727273" y="145.7575757576" xlink:href="#block"/><use x="26.9696969697" y="145.7575757576" xlink:href="#block"/><use x="31.2121212121" y="145.7575757576" xlink:href="#block"/><use x="35.4545454545" y="145.7575757576" xlink:href="#block"/><use x="56.6666666667" y="145.7575757576" xlink:href="#block"/><use x="69.3939393939" y="145.7575757576" xlink:href="#block"/><use x="73.6363636364" y="145.7575757576" xlink:href="#block"/><use x="82.1212121212" y="145.7575757576" xlink:href="#block"/><use x="86.3636363636" y="145.7575757576" xlink:href="#block"/><use x="90.6060606061" y="145.7575757576" xlink:href="#block"/><use x="94.8484848485" y="145.7575757576" xlink:href="#block"/><use x="107.5757575758" y="145.7575757576" xlink:href="#block"/><use x="116.0606060606" y="145.7575757576" xlink:href="#block"/><use x="120.3030303030" y="145.7575757576" xlink:href="#block"/><use x="124.5454545455" y="145.7575757576" xlink:href="#block"/><use x="128.7878787879" y="145.7575757576" xlink:href="#block"/></svg>
